<svg width="16" height="24" viewBox="0 0 16 24" fill="none" xmlns="http://www.w3.org/2000/svg">
<path d="M12.4763 0.0939369C12.27 0.178312 11.5904 0.839249 6.72004 5.70487C2.25754 10.1627 1.17004 11.2736 1.08098 11.4611C0.996608 11.6346 0.968483 11.7752 0.968483 12.0002C0.968483 12.6189 0.621608 12.2346 6.70129 18.3096C11.9654 23.5736 12.2044 23.808 12.4669 23.9017C12.8091 24.0283 13.081 24.0283 13.4232 23.8971C13.6482 23.8174 13.7841 23.7096 14.2388 23.2549C14.9138 22.5846 15.0028 22.4252 15.0075 21.9142C15.0075 21.6424 14.9841 21.4877 14.9185 21.3517C14.8575 21.2252 13.3575 19.6877 10.2544 16.5799L5.67942 12.0002L10.2591 7.41581C12.7763 4.89862 14.8716 2.76113 14.9185 2.67206C14.9607 2.583 15.0075 2.358 15.0216 2.17519C15.0544 1.65956 14.9278 1.42519 14.2435 0.745501C13.7841 0.290813 13.6482 0.187687 13.4232 0.103313C13.0904 -0.0232506 12.7857 -0.0232506 12.4763 0.0939369Z" fill="#012AFE"/>
</svg>
