<svg width="9" height="14" viewBox="0 0 9 14" fill="none" xmlns="http://www.w3.org/2000/svg">
<path d="M4.85 6.175C3.1475 5.7325 2.6 5.275 2.6 4.5625C2.6 3.745 3.3575 3.175 4.625 3.175C5.69 3.175 6.2225 3.58 6.4175 4.225C6.5075 4.525 6.755 4.75 7.07 4.75H7.295C7.79 4.75 8.1425 4.2625 7.97 3.7975C7.655 2.9125 6.92 2.1775 5.75 1.8925V1.375C5.75 0.7525 5.2475 0.25 4.625 0.25C4.0025 0.25 3.5 0.7525 3.5 1.375V1.87C2.045 2.185 0.875 3.13 0.875 4.5775C0.875 6.31 2.3075 7.1725 4.4 7.675C6.275 8.125 6.65 8.785 6.65 9.4825C6.65 10 6.2825 10.825 4.625 10.825C3.3875 10.825 2.75 10.3825 2.5025 9.7525C2.39 9.46 2.135 9.25 1.8275 9.25H1.6175C1.115 9.25 0.7625 9.76 0.95 10.225C1.3775 11.2675 2.375 11.8825 3.5 12.1225V12.625C3.5 13.2475 4.0025 13.75 4.625 13.75C5.2475 13.75 5.75 13.2475 5.75 12.625V12.1375C7.2125 11.86 8.375 11.0125 8.375 9.475C8.375 7.345 6.5525 6.6175 4.85 6.175Z" fill="#83939D"/>
</svg>
