<svg width="32" height="32" viewBox="0 0 32 32" fill="none" xmlns="http://www.w3.org/2000/svg">
<path d="M25.3332 5.3335H6.6665C5.60564 5.3335 4.58822 5.75492 3.83808 6.50507C3.08793 7.25521 2.6665 8.27263 2.6665 9.3335V22.6668C2.6665 23.7277 3.08793 24.7451 3.83808 25.4953C4.58822 26.2454 5.60564 26.6668 6.6665 26.6668H25.3332C26.394 26.6668 27.4115 26.2454 28.1616 25.4953C28.9117 24.7451 29.3332 23.7277 29.3332 22.6668V9.3335C29.3332 8.27263 28.9117 7.25521 28.1616 6.50507C27.4115 5.75492 26.394 5.3335 25.3332 5.3335ZM25.3332 8.00016L16.6665 13.9602C16.4638 14.0772 16.2339 14.1388 15.9998 14.1388C15.7658 14.1388 15.5359 14.0772 15.3332 13.9602L6.6665 8.00016H25.3332Z" fill="#737F88"/>
</svg>
