<svg width="18" height="18" viewBox="0 0 18 18" fill="none" xmlns="http://www.w3.org/2000/svg">
<path d="M6.12832 16.9834C5.91513 16.9834 5.70401 16.9415 5.50704 16.8599C5.31007 16.7784 5.13109 16.6588 4.98034 16.508C4.82959 16.3573 4.71002 16.1783 4.62846 15.9813C4.54689 15.7844 4.50493 15.5733 4.50498 15.3601L4.50498 6.29248C4.50493 5.86206 4.67585 5.44925 4.98015 5.14485L8.2279 1.8971C8.86058 1.26442 9.88942 1.26442 10.5226 1.89763L13.7698 5.14485C14.0737 5.44872 14.245 5.86185 14.245 6.29248L14.245 15.3601C14.2451 15.5733 14.2031 15.7844 14.1215 15.9813C14.04 16.1783 13.9204 16.3573 13.7697 16.508C13.6189 16.6588 13.4399 16.7784 13.243 16.8599C13.046 16.9415 12.8349 16.9834 12.6217 16.9834H6.12832Z" stroke="#83939D" stroke-width="2" stroke-linecap="round" stroke-linejoin="round"/>
<path d="M9.375 4.4624V4.99273" stroke="#83939D" stroke-width="2" stroke-linecap="round"/>
</svg>
