<svg width="29" height="33" viewBox="0 0 29 33" fill="none" xmlns="http://www.w3.org/2000/svg">
<path d="M7.9002 15.389H6.8002V17.589H7.9002V15.389ZM21.1002 17.589H22.2002V15.389H21.1002V17.589ZM7.9002 23.1H6.8002V24.2H7.9002V23.1ZM21.1002 23.1V24.2H22.2002V23.1H21.1002ZM7.9002 8.7934H6.8002V10.9934H7.9002V8.7934ZM21.1002 10.9934H22.2002V8.7934H21.1002V10.9934ZM27.7002 7.7H28.8002V7.2446L28.479 6.9212L27.7002 7.7ZM21.1002 1.1L21.879 0.3212L21.5556 0H21.1002V1.1ZM7.9002 17.589H21.1002V15.389H7.9002V17.589ZM7.9002 24.2H21.1002V22H7.9002V24.2ZM7.9002 10.9934H21.1002V8.7934H7.9002V10.9934ZM25.5002 30.8H3.5002V33H25.5002V30.8ZM2.4002 29.7V3.3H0.200195V29.7H2.4002ZM26.6002 7.7V29.7H28.8002V7.7H26.6002ZM3.5002 2.2H21.1002V0H3.5002V2.2ZM20.3214 1.8788L26.9214 8.4788L28.479 6.9212L21.879 0.3212L20.3214 1.8788ZM3.5002 30.8C3.20846 30.8 2.92867 30.6841 2.72238 30.4778C2.51609 30.2715 2.4002 29.9917 2.4002 29.7H0.200195C0.200195 30.5752 0.547873 31.4146 1.16674 32.0335C1.78561 32.6523 2.62498 33 3.5002 33V30.8ZM25.5002 33C26.3754 33 27.2148 32.6523 27.8336 32.0335C28.4525 31.4146 28.8002 30.5752 28.8002 29.7H26.6002C26.6002 29.9917 26.4843 30.2715 26.278 30.4778C26.0717 30.6841 25.7919 30.8 25.5002 30.8V33ZM2.4002 3.3C2.4002 3.00826 2.51609 2.72847 2.72238 2.52218C2.92867 2.31589 3.20846 2.2 3.5002 2.2V0C2.62498 0 1.78561 0.347678 1.16674 0.966548C0.547873 1.58542 0.200195 2.42479 0.200195 3.3H2.4002ZM6.8002 9.9V23.1H9.0002V9.9H6.8002ZM13.4002 9.9V23.1H15.6002V9.9H13.4002ZM20.0002 9.9V23.1H22.2002V9.9H20.0002Z" fill="#0AB383"/>
</svg>
