<svg width="127" height="56" viewBox="0 0 127 56" fill="none" xmlns="http://www.w3.org/2000/svg">
<path d="M60.4382 19V5.90909H68.5561V7.60938H62.4134V11.598H67.9744V13.2919H62.4134V19H60.4382ZM73.6538 19.2173C73.0316 19.2173 72.4691 19.1023 71.9663 18.8722C71.4634 18.6378 71.065 18.299 70.771 17.8558C70.4812 17.4126 70.3363 16.8693 70.3363 16.2259C70.3363 15.6719 70.4428 15.2159 70.6559 14.858C70.869 14.5 71.1566 14.2166 71.5188 14.0078C71.881 13.799 72.2859 13.6413 72.7333 13.5348C73.1808 13.4283 73.6367 13.3473 74.1012 13.2919C74.6893 13.2237 75.1665 13.1683 75.533 13.1257C75.8995 13.0788 76.1658 13.0043 76.332 12.902C76.4982 12.7997 76.5813 12.6335 76.5813 12.4034V12.3587C76.5813 11.8004 76.4237 11.3679 76.1083 11.0611C75.7972 10.7543 75.3327 10.6009 74.7148 10.6009C74.0714 10.6009 73.5643 10.7436 73.1935 11.0291C72.8271 11.3104 72.5735 11.6236 72.4329 11.9688L70.6367 11.5597C70.8498 10.9631 71.1609 10.4815 71.57 10.1151C71.9833 9.74432 72.4585 9.47585 72.9954 9.30966C73.5323 9.1392 74.0969 9.05398 74.6893 9.05398C75.0813 9.05398 75.4968 9.10085 75.9357 9.1946C76.3789 9.28409 76.7923 9.45028 77.1758 9.69318C77.5636 9.93608 77.881 10.2834 78.1282 10.7351C78.3754 11.1825 78.4989 11.7642 78.4989 12.4801V19H76.6325V17.6577H76.5558C76.4322 17.9048 76.2468 18.1477 75.9996 18.3864C75.7525 18.625 75.435 18.8232 75.0472 18.9808C74.6594 19.1385 74.195 19.2173 73.6538 19.2173ZM74.0692 17.6832C74.5977 17.6832 75.0494 17.5788 75.4244 17.37C75.8036 17.1612 76.0913 16.8885 76.2873 16.5518C76.4876 16.2109 76.5877 15.8466 76.5877 15.4588V14.1932C76.5195 14.2614 76.3874 14.3253 76.1914 14.3849C75.9996 14.4403 75.7802 14.4893 75.533 14.532C75.2859 14.5703 75.0451 14.6065 74.8107 14.6406C74.5763 14.6705 74.3803 14.696 74.2227 14.7173C73.8519 14.7642 73.5131 14.843 73.2063 14.9538C72.9038 15.0646 72.6609 15.2244 72.4776 15.4332C72.2987 15.6378 72.2092 15.9105 72.2092 16.2514C72.2092 16.7244 72.3839 17.0824 72.7333 17.3253C73.0827 17.5639 73.5281 17.6832 74.0692 17.6832ZM81.0446 19V9.18182H82.9558V19H81.0446ZM82.0098 7.6669C81.6774 7.6669 81.3919 7.55611 81.1532 7.33452C80.9189 7.10866 80.8017 6.8402 80.8017 6.52912C80.8017 6.21378 80.9189 5.94531 81.1532 5.72372C81.3919 5.49787 81.6774 5.38494 82.0098 5.38494C82.3422 5.38494 82.6255 5.49787 82.8599 5.72372C83.0985 5.94531 83.2179 6.21378 83.2179 6.52912C83.2179 6.8402 83.0985 7.10866 82.8599 7.33452C82.6255 7.55611 82.3422 7.6669 82.0098 7.6669ZM85.527 19V9.18182H87.3743V10.7415H87.4766C87.6555 10.2131 87.9709 9.79758 88.4226 9.49503C88.8786 9.18821 89.3942 9.0348 89.9695 9.0348C90.0888 9.0348 90.2294 9.03906 90.3913 9.04759C90.5575 9.05611 90.6875 9.06676 90.7812 9.07955V10.9077C90.7045 10.8864 90.5682 10.8629 90.3722 10.8374C90.1761 10.8075 89.9801 10.7926 89.7841 10.7926C89.3324 10.7926 88.9297 10.8885 88.576 11.0803C88.2266 11.2678 87.9496 11.5298 87.745 11.8665C87.5405 12.1989 87.4382 12.5781 87.4382 13.0043V19H85.527ZM97.3523 19V5.90909H105.47V7.60938H99.3274V11.598H104.888V13.2919H99.3274V19H97.3523ZM110.568 19.2173C109.946 19.2173 109.383 19.1023 108.88 18.8722C108.377 18.6378 107.979 18.299 107.685 17.8558C107.395 17.4126 107.25 16.8693 107.25 16.2259C107.25 15.6719 107.357 15.2159 107.57 14.858C107.783 14.5 108.071 14.2166 108.433 14.0078C108.795 13.799 109.2 13.6413 109.647 13.5348C110.095 13.4283 110.551 13.3473 111.015 13.2919C111.603 13.2237 112.081 13.1683 112.447 13.1257C112.814 13.0788 113.08 13.0043 113.246 12.902C113.412 12.7997 113.495 12.6335 113.495 12.4034V12.3587C113.495 11.8004 113.338 11.3679 113.022 11.0611C112.711 10.7543 112.247 10.6009 111.629 10.6009C110.985 10.6009 110.478 10.7436 110.108 11.0291C109.741 11.3104 109.488 11.6236 109.347 11.9688L107.551 11.5597C107.764 10.9631 108.075 10.4815 108.484 10.1151C108.897 9.74432 109.373 9.47585 109.909 9.30966C110.446 9.1392 111.011 9.05398 111.603 9.05398C111.995 9.05398 112.411 9.10085 112.85 9.1946C113.293 9.28409 113.706 9.45028 114.09 9.69318C114.478 9.93608 114.795 10.2834 115.042 10.7351C115.289 11.1825 115.413 11.7642 115.413 12.4801V19H113.547V17.6577H113.47C113.346 17.9048 113.161 18.1477 112.914 18.3864C112.667 18.625 112.349 18.8232 111.961 18.9808C111.574 19.1385 111.109 19.2173 110.568 19.2173ZM110.983 17.6832C111.512 17.6832 111.963 17.5788 112.338 17.37C112.718 17.1612 113.005 16.8885 113.201 16.5518C113.402 16.2109 113.502 15.8466 113.502 15.4588V14.1932C113.434 14.2614 113.301 14.3253 113.105 14.3849C112.914 14.4403 112.694 14.4893 112.447 14.532C112.2 14.5703 111.959 14.6065 111.725 14.6406C111.49 14.6705 111.294 14.696 111.137 14.7173C110.766 14.7642 110.427 14.843 110.12 14.9538C109.818 15.0646 109.575 15.2244 109.392 15.4332C109.213 15.6378 109.123 15.9105 109.123 16.2514C109.123 16.7244 109.298 17.0824 109.647 17.3253C109.997 17.5639 110.442 17.6832 110.983 17.6832ZM119.467 9.18182L121.634 13.0043L123.82 9.18182H125.91L122.849 14.0909L125.936 19H123.846L121.634 15.331L119.429 19H117.332L120.388 14.0909L117.371 9.18182H119.467Z" fill="#1A1A1A"/>
<path d="M66.7727 30.2727C66.7045 29.697 66.428 29.25 65.9432 28.9318C65.4583 28.6136 64.8636 28.4545 64.1591 28.4545C63.6439 28.4545 63.1932 28.5379 62.8068 28.7045C62.4242 28.8712 62.125 29.1004 61.9091 29.392C61.697 29.6837 61.5909 30.0152 61.5909 30.3864C61.5909 30.697 61.6648 30.964 61.8125 31.1875C61.964 31.4072 62.1572 31.5909 62.392 31.7386C62.6269 31.8826 62.8731 32.0019 63.1307 32.0966C63.3883 32.1875 63.625 32.2614 63.8409 32.3182L65.0227 32.6364C65.3258 32.7159 65.6629 32.8258 66.0341 32.9659C66.4091 33.1061 66.767 33.2973 67.108 33.5398C67.4527 33.7784 67.7367 34.0852 67.9602 34.4602C68.1837 34.8352 68.2955 35.2955 68.2955 35.8409C68.2955 36.4697 68.1307 37.0379 67.8011 37.5455C67.4754 38.053 66.9981 38.4564 66.3693 38.7557C65.7443 39.0549 64.9848 39.2045 64.0909 39.2045C63.2576 39.2045 62.536 39.0701 61.9261 38.8011C61.3201 38.5322 60.8428 38.1572 60.4943 37.6761C60.1496 37.1951 59.9545 36.6364 59.9091 36H61.3636C61.4015 36.4394 61.5492 36.803 61.8068 37.0909C62.0682 37.375 62.3977 37.5871 62.7955 37.7273C63.197 37.8636 63.6288 37.9318 64.0909 37.9318C64.6288 37.9318 65.1117 37.8447 65.5398 37.6705C65.9678 37.4924 66.3068 37.2462 66.5568 36.9318C66.8068 36.6136 66.9318 36.2424 66.9318 35.8182C66.9318 35.4318 66.8239 35.1174 66.608 34.875C66.392 34.6326 66.108 34.4356 65.7557 34.2841C65.4034 34.1326 65.0227 34 64.6136 33.8864L63.1818 33.4773C62.2727 33.2159 61.553 32.8428 61.0227 32.358C60.4924 31.8731 60.2273 31.2386 60.2273 30.4545C60.2273 29.803 60.4034 29.2348 60.7557 28.75C61.1117 28.2614 61.589 27.8826 62.1875 27.6136C62.7898 27.3409 63.4621 27.2045 64.2045 27.2045C64.9545 27.2045 65.6212 27.339 66.2045 27.608C66.7879 27.8731 67.25 28.2367 67.5909 28.6989C67.9356 29.161 68.1174 29.6856 68.1364 30.2727H66.7727ZM74.0895 39.1818C73.2486 39.1818 72.5232 38.9962 71.9134 38.625C71.3073 38.25 70.8395 37.7273 70.5099 37.0568C70.1842 36.3826 70.0213 35.5985 70.0213 34.7045C70.0213 33.8106 70.1842 33.0227 70.5099 32.3409C70.8395 31.6553 71.2978 31.1212 71.8849 30.7386C72.4759 30.3523 73.1652 30.1591 73.9531 30.1591C74.4077 30.1591 74.8565 30.2348 75.2997 30.3864C75.7429 30.5379 76.1463 30.7841 76.5099 31.125C76.8736 31.4621 77.1634 31.9091 77.3793 32.4659C77.5952 33.0227 77.7031 33.7083 77.7031 34.5227V35.0909H70.9759V33.9318H76.3395C76.3395 33.4394 76.241 33 76.044 32.6136C75.8509 32.2273 75.5743 31.9223 75.2145 31.6989C74.8584 31.4754 74.438 31.3636 73.9531 31.3636C73.419 31.3636 72.9569 31.4962 72.5668 31.7614C72.1804 32.0227 71.883 32.3636 71.6747 32.7841C71.4664 33.2045 71.3622 33.6553 71.3622 34.1364V34.9091C71.3622 35.5682 71.4759 36.1269 71.7031 36.5852C71.9342 37.0398 72.2543 37.3864 72.6634 37.625C73.0724 37.8598 73.5478 37.9773 74.0895 37.9773C74.4418 37.9773 74.7599 37.928 75.044 37.8295C75.3319 37.7273 75.58 37.5758 75.7884 37.375C75.9967 37.1705 76.1577 36.9167 76.2713 36.6136L77.5668 36.9773C77.4304 37.4167 77.2012 37.803 76.8793 38.1364C76.5573 38.4659 76.1596 38.7235 75.6861 38.9091C75.2126 39.0909 74.6804 39.1818 74.0895 39.1818ZM83.2656 42.4545C82.6179 42.4545 82.0611 42.3712 81.5952 42.2045C81.1293 42.0417 80.741 41.8258 80.4304 41.5568C80.1236 41.2917 79.8793 41.0076 79.6974 40.7045L80.7656 39.9545C80.8868 40.1136 81.0402 40.2955 81.2259 40.5C81.4115 40.7083 81.6652 40.8883 81.9872 41.0398C82.313 41.1951 82.7391 41.2727 83.2656 41.2727C83.9702 41.2727 84.5516 41.1023 85.0099 40.7614C85.4683 40.4205 85.6974 39.8864 85.6974 39.1591V37.3864H85.5838C85.4853 37.5455 85.3452 37.7424 85.1634 37.9773C84.9853 38.2083 84.7277 38.4148 84.3906 38.5966C84.0573 38.7746 83.6065 38.8636 83.0384 38.8636C82.3338 38.8636 81.7012 38.697 81.1406 38.3636C80.5838 38.0303 80.1425 37.5455 79.8168 36.9091C79.4948 36.2727 79.3338 35.5 79.3338 34.5909C79.3338 33.697 79.491 32.9186 79.8054 32.2557C80.1198 31.589 80.5573 31.0739 81.1179 30.7102C81.6785 30.3428 82.3262 30.1591 83.0611 30.1591C83.6293 30.1591 84.08 30.2538 84.4134 30.4432C84.7505 30.6288 85.008 30.8409 85.1861 31.0795C85.3679 31.3144 85.508 31.5076 85.6065 31.6591H85.7429V30.2727H87.0384V39.25C87.0384 40 86.8679 40.6098 86.527 41.0795C86.1899 41.553 85.7353 41.8996 85.1634 42.1193C84.5952 42.3428 83.9626 42.4545 83.2656 42.4545ZM83.2202 37.6591C83.758 37.6591 84.2126 37.536 84.5838 37.2898C84.955 37.0436 85.2372 36.6894 85.4304 36.2273C85.6236 35.7652 85.7202 35.2121 85.7202 34.5682C85.7202 33.9394 85.6255 33.3845 85.4361 32.9034C85.2467 32.4223 84.9664 32.0455 84.5952 31.7727C84.224 31.5 83.7656 31.3636 83.2202 31.3636C82.652 31.3636 82.1785 31.5076 81.7997 31.7955C81.4247 32.0833 81.1425 32.4697 80.9531 32.9545C80.7675 33.4394 80.6747 33.9773 80.6747 34.5682C80.6747 35.1742 80.7694 35.7102 80.9588 36.1761C81.152 36.6383 81.4361 37.0019 81.8111 37.267C82.1899 37.5284 82.6596 37.6591 83.2202 37.6591ZM94.9929 35.4318V30.2727H96.3338V39H94.9929V37.5227H94.902C94.6974 37.9659 94.3793 38.3428 93.9474 38.6534C93.5156 38.9602 92.9702 39.1136 92.3111 39.1136C91.7656 39.1136 91.2808 38.9943 90.8565 38.7557C90.4323 38.5133 90.099 38.1496 89.8565 37.6648C89.6141 37.1761 89.4929 36.5606 89.4929 35.8182V30.2727H90.8338V35.7273C90.8338 36.3636 91.0118 36.8712 91.3679 37.25C91.7277 37.6288 92.1861 37.8182 92.7429 37.8182C93.0762 37.8182 93.4152 37.733 93.7599 37.5625C94.1084 37.392 94.4001 37.1307 94.6349 36.7784C94.8736 36.4261 94.9929 35.9773 94.9929 35.4318ZM98.7898 39V30.2727H100.085V31.5909H100.176C100.335 31.1591 100.623 30.8087 101.04 30.5398C101.456 30.2708 101.926 30.1364 102.449 30.1364C102.547 30.1364 102.67 30.1383 102.818 30.142C102.966 30.1458 103.078 30.1515 103.153 30.1591V31.5227C103.108 31.5114 103.004 31.4943 102.841 31.4716C102.682 31.4451 102.513 31.4318 102.335 31.4318C101.911 31.4318 101.532 31.5208 101.199 31.6989C100.869 31.8731 100.608 32.1155 100.415 32.4261C100.225 32.733 100.131 33.0833 100.131 33.4773V39H98.7898ZM108.023 39.1818C107.235 39.1818 106.544 38.9943 105.949 38.6193C105.358 38.2443 104.896 37.7197 104.562 37.0455C104.233 36.3712 104.068 35.5833 104.068 34.6818C104.068 33.7727 104.233 32.9792 104.562 32.3011C104.896 31.6231 105.358 31.0966 105.949 30.7216C106.544 30.3466 107.235 30.1591 108.023 30.1591C108.811 30.1591 109.5 30.3466 110.091 30.7216C110.686 31.0966 111.148 31.6231 111.477 32.3011C111.811 32.9792 111.977 33.7727 111.977 34.6818C111.977 35.5833 111.811 36.3712 111.477 37.0455C111.148 37.7197 110.686 38.2443 110.091 38.6193C109.5 38.9943 108.811 39.1818 108.023 39.1818ZM108.023 37.9773C108.621 37.9773 109.114 37.8239 109.5 37.517C109.886 37.2102 110.172 36.8068 110.358 36.3068C110.544 35.8068 110.636 35.2652 110.636 34.6818C110.636 34.0985 110.544 33.5549 110.358 33.0511C110.172 32.5473 109.886 32.1402 109.5 31.8295C109.114 31.5189 108.621 31.3636 108.023 31.3636C107.424 31.3636 106.932 31.5189 106.545 31.8295C106.159 32.1402 105.873 32.5473 105.688 33.0511C105.502 33.5549 105.409 34.0985 105.409 34.6818C105.409 35.2652 105.502 35.8068 105.688 36.3068C105.873 36.8068 106.159 37.2102 106.545 37.517C106.932 37.8239 107.424 37.9773 108.023 37.9773ZM120.206 32.2273L119.001 32.5682C118.926 32.3674 118.814 32.1723 118.666 31.983C118.522 31.7898 118.325 31.6307 118.075 31.5057C117.825 31.3807 117.505 31.3182 117.115 31.3182C116.581 31.3182 116.136 31.4413 115.78 31.6875C115.428 31.9299 115.251 32.2386 115.251 32.6136C115.251 32.947 115.373 33.2102 115.615 33.4034C115.857 33.5966 116.236 33.7576 116.751 33.8864L118.047 34.2045C118.827 34.3939 119.409 34.6837 119.791 35.0739C120.174 35.4602 120.365 35.9583 120.365 36.5682C120.365 37.0682 120.221 37.5152 119.933 37.9091C119.649 38.303 119.251 38.6136 118.74 38.8409C118.229 39.0682 117.634 39.1818 116.956 39.1818C116.066 39.1818 115.329 38.9886 114.746 38.6023C114.162 38.2159 113.793 37.6515 113.638 36.9091L114.911 36.5909C115.032 37.0606 115.261 37.4129 115.598 37.6477C115.939 37.8826 116.384 38 116.933 38C117.558 38 118.054 37.8674 118.422 37.6023C118.793 37.3333 118.979 37.0114 118.979 36.6364C118.979 36.3333 118.873 36.0795 118.661 35.875C118.448 35.6667 118.123 35.5114 117.683 35.4091L116.229 35.0682C115.429 34.8788 114.842 34.5852 114.467 34.1875C114.096 33.786 113.911 33.2841 113.911 32.6818C113.911 32.1894 114.049 31.7538 114.325 31.375C114.606 30.9962 114.986 30.6989 115.467 30.483C115.952 30.267 116.501 30.1591 117.115 30.1591C117.979 30.1591 118.657 30.3485 119.149 30.7273C119.645 31.1061 119.998 31.6061 120.206 32.2273Z" fill="#6F6D75"/>
<path d="M0 20.0199V40.0399H4.62H9.24V32.1199V24.1999H13.2H17.16V40.0399V55.8799H21.56H25.96V47.9599V40.0399H34.98H44V35.8599V31.6799H34.98H25.96V27.9399V24.1999H34.98H44V20.0199V15.8399H26.62H9.24V12.0999V8.35988L18.172 8.27188L27.06 8.13988L27.192 4.04788L27.324 -0.000118256H13.64H0V20.0199Z" fill="#012AFE"/>
</svg>
