<svg width="482" height="367" viewBox="0 0 482 367" fill="none" xmlns="http://www.w3.org/2000/svg">
<path d="M28.4382 363V349.909H33.1044C34.1229 349.909 34.9666 350.094 35.6357 350.465C36.3047 350.836 36.8054 351.343 37.1378 351.987C37.4702 352.626 37.6364 353.346 37.6364 354.147C37.6364 354.952 37.468 355.677 37.1314 356.32C36.799 356.96 36.2962 357.467 35.6229 357.842C34.9538 358.212 34.1122 358.398 33.098 358.398H29.8892V356.723H32.919C33.5625 356.723 34.0845 356.612 34.4851 356.391C34.8857 356.165 35.1797 355.858 35.3672 355.47C35.5547 355.082 35.6484 354.641 35.6484 354.147C35.6484 353.653 35.5547 353.214 35.3672 352.83C35.1797 352.447 34.8835 352.146 34.4787 351.929C34.0781 351.712 33.5497 351.603 32.8935 351.603H30.4134V363H28.4382ZM42.5678 363.217C41.9457 363.217 41.3832 363.102 40.8803 362.872C40.3775 362.638 39.979 362.299 39.685 361.856C39.3952 361.413 39.2504 360.869 39.2504 360.226C39.2504 359.672 39.3569 359.216 39.57 358.858C39.783 358.5 40.0707 358.217 40.4329 358.008C40.7951 357.799 41.1999 357.641 41.6474 357.535C42.0948 357.428 42.5508 357.347 43.0153 357.292C43.6033 357.224 44.0806 357.168 44.4471 357.126C44.8136 357.079 45.0799 357.004 45.2461 356.902C45.4123 356.8 45.4954 356.634 45.4954 356.403V356.359C45.4954 355.8 45.3377 355.368 45.0224 355.061C44.7113 354.754 44.2468 354.601 43.6289 354.601C42.9854 354.601 42.4783 354.744 42.1076 355.029C41.7411 355.31 41.4876 355.624 41.3469 355.969L39.5508 355.56C39.7638 354.963 40.0749 354.482 40.484 354.115C40.8974 353.744 41.3725 353.476 41.9094 353.31C42.4464 353.139 43.011 353.054 43.6033 353.054C43.9954 353.054 44.4109 353.101 44.8498 353.195C45.293 353.284 45.7063 353.45 46.0898 353.693C46.4776 353.936 46.7951 354.283 47.0423 354.735C47.2894 355.183 47.413 355.764 47.413 356.48V363H45.5465V361.658H45.4698C45.3462 361.905 45.1609 362.148 44.9137 362.386C44.6665 362.625 44.3491 362.823 43.9613 362.981C43.5735 363.138 43.109 363.217 42.5678 363.217ZM42.9833 361.683C43.5117 361.683 43.9634 361.579 44.3384 361.37C44.7177 361.161 45.0053 360.888 45.2013 360.552C45.4016 360.211 45.5018 359.847 45.5018 359.459V358.193C45.4336 358.261 45.3015 358.325 45.1055 358.385C44.9137 358.44 44.6942 358.489 44.4471 358.532C44.1999 358.57 43.9592 358.607 43.7248 358.641C43.4904 358.67 43.2944 358.696 43.1367 358.717C42.766 358.764 42.4272 358.843 42.1204 358.954C41.8178 359.065 41.5749 359.224 41.3917 359.433C41.2127 359.638 41.1232 359.911 41.1232 360.251C41.1232 360.724 41.2979 361.082 41.6474 361.325C41.9968 361.564 42.4421 361.683 42.9833 361.683ZM49.9586 363V353.182H51.8059V354.741H51.9082C52.0872 354.213 52.4025 353.798 52.8542 353.495C53.3102 353.188 53.8258 353.035 54.4011 353.035C54.5204 353.035 54.661 353.039 54.823 353.048C54.9892 353.056 55.1191 353.067 55.2129 353.08V354.908C55.1362 354.886 54.9998 354.863 54.8038 354.837C54.6078 354.808 54.4118 354.793 54.2157 354.793C53.764 354.793 53.3613 354.888 53.0076 355.08C52.6582 355.268 52.3812 355.53 52.1767 355.866C51.9721 356.199 51.8699 356.578 51.8699 357.004V363H49.9586ZM59.6362 363.217C59.014 363.217 58.4515 363.102 57.9487 362.872C57.4458 362.638 57.0474 362.299 56.7534 361.856C56.4636 361.413 56.3187 360.869 56.3187 360.226C56.3187 359.672 56.4252 359.216 56.6383 358.858C56.8514 358.5 57.139 358.217 57.5012 358.008C57.8635 357.799 58.2683 357.641 58.7157 357.535C59.1632 357.428 59.6191 357.347 60.0836 357.292C60.6717 357.224 61.149 357.168 61.5154 357.126C61.8819 357.079 62.1483 357.004 62.3145 356.902C62.4806 356.8 62.5637 356.634 62.5637 356.403V356.359C62.5637 355.8 62.4061 355.368 62.0907 355.061C61.7797 354.754 61.3152 354.601 60.6973 354.601C60.0538 354.601 59.5467 354.744 59.176 355.029C58.8095 355.31 58.5559 355.624 58.4153 355.969L56.6191 355.56C56.8322 354.963 57.1433 354.482 57.5524 354.115C57.9657 353.744 58.4409 353.476 58.9778 353.31C59.5147 353.139 60.0794 353.054 60.6717 353.054C61.0637 353.054 61.4792 353.101 61.9181 353.195C62.3613 353.284 62.7747 353.45 63.1582 353.693C63.546 353.936 63.8635 354.283 64.1106 354.735C64.3578 355.183 64.4814 355.764 64.4814 356.48V363H62.6149V361.658H62.5382C62.4146 361.905 62.2292 362.148 61.9821 362.386C61.7349 362.625 61.4174 362.823 61.0297 362.981C60.6419 363.138 60.1774 363.217 59.6362 363.217ZM60.0517 361.683C60.5801 361.683 61.0318 361.579 61.4068 361.37C61.786 361.161 62.0737 360.888 62.2697 360.552C62.47 360.211 62.5701 359.847 62.5701 359.459V358.193C62.502 358.261 62.3699 358.325 62.1738 358.385C61.9821 358.44 61.7626 358.489 61.5154 358.532C61.2683 358.57 61.0275 358.607 60.7931 358.641C60.5588 358.67 60.3627 358.696 60.2051 358.717C59.8343 358.764 59.4956 358.843 59.1887 358.954C58.8862 359.065 58.6433 359.224 58.46 359.433C58.2811 359.638 58.1916 359.911 58.1916 360.251C58.1916 360.724 58.3663 361.082 58.7157 361.325C59.0652 361.564 59.5105 361.683 60.0517 361.683ZM68.9382 357.17V363H67.027V353.182H68.8615V354.78H68.983C69.2088 354.26 69.5625 353.842 70.044 353.527C70.5298 353.212 71.1413 353.054 71.8786 353.054C72.5476 353.054 73.1335 353.195 73.6364 353.476C74.1392 353.753 74.5291 354.166 74.8061 354.716C75.0831 355.266 75.2216 355.945 75.2216 356.755V363H73.3104V356.985C73.3104 356.273 73.125 355.717 72.7543 355.317C72.3835 354.912 71.8743 354.71 71.2266 354.71C70.7834 354.71 70.3892 354.805 70.044 354.997C69.7031 355.189 69.4325 355.47 69.2322 355.841C69.0362 356.207 68.9382 356.651 68.9382 357.17ZM80.642 363.217C80.0199 363.217 79.4574 363.102 78.9545 362.872C78.4517 362.638 78.0533 362.299 77.7592 361.856C77.4695 361.413 77.3246 360.869 77.3246 360.226C77.3246 359.672 77.4311 359.216 77.6442 358.858C77.8572 358.5 78.1449 358.217 78.5071 358.008C78.8693 357.799 79.2741 357.641 79.7216 357.535C80.169 357.428 80.625 357.347 81.0895 357.292C81.6776 357.224 82.1548 357.168 82.5213 357.126C82.8878 357.079 83.1541 357.004 83.3203 356.902C83.4865 356.8 83.5696 356.634 83.5696 356.403V356.359C83.5696 355.8 83.4119 355.368 83.0966 355.061C82.7855 354.754 82.321 354.601 81.7031 354.601C81.0597 354.601 80.5526 354.744 80.1818 355.029C79.8153 355.31 79.5618 355.624 79.4212 355.969L77.625 355.56C77.8381 354.963 78.1491 354.482 78.5582 354.115C78.9716 353.744 79.4467 353.476 79.9837 353.31C80.5206 353.139 81.0852 353.054 81.6776 353.054C82.0696 353.054 82.4851 353.101 82.924 353.195C83.3672 353.284 83.7805 353.45 84.1641 353.693C84.5518 353.936 84.8693 354.283 85.1165 354.735C85.3636 355.183 85.4872 355.764 85.4872 356.48V363H83.6207V361.658H83.544C83.4205 361.905 83.2351 362.148 82.9879 362.386C82.7408 362.625 82.4233 362.823 82.0355 362.981C81.6477 363.138 81.1832 363.217 80.642 363.217ZM81.0575 361.683C81.5859 361.683 82.0376 361.579 82.4126 361.37C82.7919 361.161 83.0795 360.888 83.2756 360.552C83.4759 360.211 83.576 359.847 83.576 359.459V358.193C83.5078 358.261 83.3757 358.325 83.1797 358.385C82.9879 358.44 82.7685 358.489 82.5213 358.532C82.2741 358.57 82.0334 358.607 81.799 358.641C81.5646 358.67 81.3686 358.696 81.2109 358.717C80.8402 358.764 80.5014 358.843 80.1946 358.954C79.892 359.065 79.6491 359.224 79.4659 359.433C79.2869 359.638 79.1974 359.911 79.1974 360.251C79.1974 360.724 79.3722 361.082 79.7216 361.325C80.071 361.564 80.5163 361.683 81.0575 361.683ZM80.9872 351.871L82.483 348.925H84.4964L82.5149 351.871H80.9872Z" fill="#1A1A1A"/>
<path d="M139.578 353.348C139.51 352.743 139.229 352.274 138.734 351.942C138.24 351.605 137.618 351.437 136.868 351.437C136.331 351.437 135.866 351.522 135.474 351.692C135.082 351.859 134.778 352.089 134.56 352.383C134.347 352.673 134.241 353.003 134.241 353.374C134.241 353.685 134.313 353.953 134.458 354.179C134.607 354.405 134.801 354.594 135.04 354.748C135.283 354.897 135.543 355.023 135.82 355.125C136.097 355.223 136.363 355.304 136.619 355.368L137.897 355.7C138.315 355.803 138.743 355.941 139.182 356.116C139.621 356.29 140.028 356.521 140.403 356.806C140.778 357.092 141.08 357.445 141.31 357.867C141.545 358.289 141.662 358.794 141.662 359.382C141.662 360.124 141.47 360.782 141.087 361.357C140.707 361.933 140.156 362.386 139.431 362.719C138.711 363.051 137.839 363.217 136.817 363.217C135.837 363.217 134.989 363.062 134.273 362.751C133.557 362.44 132.996 361.999 132.592 361.428C132.187 360.852 131.963 360.17 131.92 359.382H133.902C133.94 359.855 134.094 360.249 134.362 360.565C134.635 360.876 134.982 361.108 135.404 361.261C135.83 361.411 136.297 361.485 136.804 361.485C137.362 361.485 137.859 361.398 138.293 361.223C138.732 361.044 139.077 360.797 139.329 360.482C139.58 360.162 139.706 359.789 139.706 359.363C139.706 358.975 139.595 358.658 139.374 358.411C139.156 358.163 138.86 357.959 138.485 357.797C138.114 357.635 137.695 357.492 137.226 357.369L135.679 356.947C134.631 356.661 133.8 356.241 133.186 355.688C132.577 355.134 132.272 354.401 132.272 353.489C132.272 352.734 132.477 352.076 132.886 351.513C133.295 350.951 133.849 350.514 134.548 350.203C135.246 349.888 136.035 349.73 136.913 349.73C137.799 349.73 138.581 349.886 139.259 350.197C139.94 350.508 140.477 350.936 140.869 351.482C141.261 352.023 141.466 352.645 141.483 353.348H139.578ZM146.726 363.217C146.104 363.217 145.541 363.102 145.039 362.872C144.536 362.638 144.137 362.299 143.843 361.856C143.553 361.413 143.409 360.869 143.409 360.226C143.409 359.672 143.515 359.216 143.728 358.858C143.941 358.5 144.229 358.217 144.591 358.008C144.953 357.799 145.358 357.641 145.806 357.535C146.253 357.428 146.709 357.347 147.173 357.292C147.762 357.224 148.239 357.168 148.605 357.126C148.972 357.079 149.238 357.004 149.404 356.902C149.57 356.8 149.654 356.634 149.654 356.403V356.359C149.654 355.8 149.496 355.368 149.181 355.061C148.869 354.754 148.405 354.601 147.787 354.601C147.144 354.601 146.637 354.744 146.266 355.029C145.899 355.31 145.646 355.624 145.505 355.969L143.709 355.56C143.922 354.963 144.233 354.482 144.642 354.115C145.056 353.744 145.531 353.476 146.068 353.31C146.605 353.139 147.169 353.054 147.762 353.054C148.154 353.054 148.569 353.101 149.008 353.195C149.451 353.284 149.865 353.45 150.248 353.693C150.636 353.936 150.953 354.283 151.2 354.735C151.448 355.183 151.571 355.764 151.571 356.48V363H149.705V361.658H149.628C149.504 361.905 149.319 362.148 149.072 362.386C148.825 362.625 148.507 362.823 148.119 362.981C147.732 363.138 147.267 363.217 146.726 363.217ZM147.142 361.683C147.67 361.683 148.122 361.579 148.497 361.37C148.876 361.161 149.164 360.888 149.36 360.552C149.56 360.211 149.66 359.847 149.66 359.459V358.193C149.592 358.261 149.46 358.325 149.264 358.385C149.072 358.44 148.852 358.489 148.605 358.532C148.358 358.57 148.117 358.607 147.883 358.641C147.649 358.67 147.453 358.696 147.295 358.717C146.924 358.764 146.585 358.843 146.279 358.954C145.976 359.065 145.733 359.224 145.55 359.433C145.371 359.638 145.281 359.911 145.281 360.251C145.281 360.724 145.456 361.082 145.806 361.325C146.155 361.564 146.6 361.683 147.142 361.683ZM145.94 351.993L144.655 351.955C144.655 351.247 144.845 350.683 145.224 350.261C145.607 349.839 146.08 349.628 146.643 349.628C146.903 349.628 147.131 349.673 147.327 349.762C147.523 349.847 147.706 349.947 147.877 350.062C148.051 350.173 148.224 350.273 148.394 350.363C148.569 350.448 148.763 350.491 148.976 350.491C149.223 350.491 149.423 350.397 149.577 350.21C149.735 350.022 149.813 349.79 149.813 349.513L151.073 349.596C151.073 350.308 150.881 350.868 150.497 351.277C150.114 351.682 149.643 351.886 149.085 351.891C148.782 351.891 148.531 351.848 148.33 351.763C148.134 351.673 147.96 351.573 147.806 351.462C147.653 351.347 147.495 351.245 147.333 351.156C147.171 351.066 146.977 351.021 146.752 351.021C146.513 351.021 146.317 351.115 146.164 351.303C146.014 351.486 145.94 351.716 145.94 351.993ZM158.252 363.198C157.332 363.198 156.529 362.987 155.843 362.565C155.157 362.143 154.624 361.553 154.245 360.795C153.865 360.036 153.676 359.15 153.676 358.136C153.676 357.117 153.865 356.227 154.245 355.464C154.624 354.701 155.157 354.109 155.843 353.687C156.529 353.265 157.332 353.054 158.252 353.054C159.173 353.054 159.976 353.265 160.662 353.687C161.348 354.109 161.881 354.701 162.26 355.464C162.64 356.227 162.829 357.117 162.829 358.136C162.829 359.15 162.64 360.036 162.26 360.795C161.881 361.553 161.348 362.143 160.662 362.565C159.976 362.987 159.173 363.198 158.252 363.198ZM158.259 361.594C158.855 361.594 159.35 361.436 159.742 361.121C160.134 360.805 160.424 360.386 160.611 359.862C160.803 359.337 160.899 358.76 160.899 358.129C160.899 357.503 160.803 356.928 160.611 356.403C160.424 355.875 160.134 355.451 159.742 355.131C159.35 354.812 158.855 354.652 158.259 354.652C157.658 354.652 157.159 354.812 156.763 355.131C156.371 355.451 156.079 355.875 155.887 356.403C155.7 356.928 155.606 357.503 155.606 358.129C155.606 358.76 155.7 359.337 155.887 359.862C156.079 360.386 156.371 360.805 156.763 361.121C157.159 361.436 157.658 361.594 158.259 361.594ZM169.88 363V349.909H174.546C175.564 349.909 176.408 350.094 177.077 350.465C177.746 350.836 178.247 351.343 178.579 351.987C178.912 352.626 179.078 353.346 179.078 354.147C179.078 354.952 178.909 355.677 178.573 356.32C178.24 356.96 177.738 357.467 177.064 357.842C176.395 358.212 175.554 358.398 174.539 358.398H171.331V356.723H174.36C175.004 356.723 175.526 356.612 175.926 356.391C176.327 356.165 176.621 355.858 176.809 355.47C176.996 355.082 177.09 354.641 177.09 354.147C177.09 353.653 176.996 353.214 176.809 352.83C176.621 352.447 176.325 352.146 175.92 351.929C175.52 351.712 174.991 351.603 174.335 351.603H171.855V363H169.88ZM184.009 363.217C183.387 363.217 182.825 363.102 182.322 362.872C181.819 362.638 181.42 362.299 181.126 361.856C180.837 361.413 180.692 360.869 180.692 360.226C180.692 359.672 180.798 359.216 181.011 358.858C181.224 358.5 181.512 358.217 181.874 358.008C182.237 357.799 182.641 357.641 183.089 357.535C183.536 357.428 183.992 357.347 184.457 357.292C185.045 357.224 185.522 357.168 185.888 357.126C186.255 357.079 186.521 357.004 186.688 356.902C186.854 356.8 186.937 356.634 186.937 356.403V356.359C186.937 355.8 186.779 355.368 186.464 355.061C186.153 354.754 185.688 354.601 185.07 354.601C184.427 354.601 183.92 354.744 183.549 355.029C183.183 355.31 182.929 355.624 182.788 355.969L180.992 355.56C181.205 354.963 181.516 354.482 181.925 354.115C182.339 353.744 182.814 353.476 183.351 353.31C183.888 353.139 184.452 353.054 185.045 353.054C185.437 353.054 185.852 353.101 186.291 353.195C186.734 353.284 187.148 353.45 187.531 353.693C187.919 353.936 188.237 354.283 188.484 354.735C188.731 355.183 188.854 355.764 188.854 356.48V363H186.988V361.658H186.911C186.788 361.905 186.602 362.148 186.355 362.386C186.108 362.625 185.79 362.823 185.403 362.981C185.015 363.138 184.55 363.217 184.009 363.217ZM184.425 361.683C184.953 361.683 185.405 361.579 185.78 361.37C186.159 361.161 186.447 360.888 186.643 360.552C186.843 360.211 186.943 359.847 186.943 359.459V358.193C186.875 358.261 186.743 358.325 186.547 358.385C186.355 358.44 186.136 358.489 185.888 358.532C185.641 358.57 185.401 358.607 185.166 358.641C184.932 358.67 184.736 358.696 184.578 358.717C184.207 358.764 183.869 358.843 183.562 358.954C183.259 359.065 183.016 359.224 182.833 359.433C182.654 359.638 182.565 359.911 182.565 360.251C182.565 360.724 182.739 361.082 183.089 361.325C183.438 361.564 183.884 361.683 184.425 361.683ZM197.619 358.928V353.182H199.537V363H197.658V361.3H197.556C197.33 361.824 196.968 362.261 196.469 362.61C195.975 362.955 195.359 363.128 194.622 363.128C193.991 363.128 193.433 362.989 192.947 362.712C192.465 362.431 192.086 362.016 191.809 361.466C191.536 360.916 191.4 360.237 191.4 359.427V353.182H193.311V359.197C193.311 359.866 193.497 360.398 193.867 360.795C194.238 361.191 194.72 361.389 195.312 361.389C195.67 361.389 196.026 361.3 196.379 361.121C196.737 360.942 197.034 360.671 197.268 360.309C197.507 359.947 197.624 359.487 197.619 358.928ZM204.016 349.909V363H202.105V349.909H204.016ZM210.723 363.198C209.803 363.198 208.999 362.987 208.313 362.565C207.627 362.143 207.095 361.553 206.715 360.795C206.336 360.036 206.146 359.15 206.146 358.136C206.146 357.117 206.336 356.227 206.715 355.464C207.095 354.701 207.627 354.109 208.313 353.687C208.999 353.265 209.803 353.054 210.723 353.054C211.644 353.054 212.447 353.265 213.133 353.687C213.819 354.109 214.352 354.701 214.731 355.464C215.11 356.227 215.3 357.117 215.3 358.136C215.3 359.15 215.11 360.036 214.731 360.795C214.352 361.553 213.819 362.143 213.133 362.565C212.447 362.987 211.644 363.198 210.723 363.198ZM210.73 361.594C211.326 361.594 211.82 361.436 212.213 361.121C212.605 360.805 212.894 360.386 213.082 359.862C213.274 359.337 213.369 358.76 213.369 358.129C213.369 357.503 213.274 356.928 213.082 356.403C212.894 355.875 212.605 355.451 212.213 355.131C211.82 354.812 211.326 354.652 210.73 354.652C210.129 354.652 209.63 354.812 209.234 355.131C208.842 355.451 208.55 355.875 208.358 356.403C208.171 356.928 208.077 357.503 208.077 358.129C208.077 358.76 208.171 359.337 208.358 359.862C208.55 360.386 208.842 360.805 209.234 361.121C209.63 361.436 210.129 361.594 210.73 361.594Z" fill="#1A1A1A"/>
<path d="M269.578 353.348C269.51 352.743 269.229 352.274 268.734 351.942C268.24 351.605 267.618 351.437 266.868 351.437C266.331 351.437 265.866 351.522 265.474 351.692C265.082 351.859 264.778 352.089 264.56 352.383C264.347 352.673 264.241 353.003 264.241 353.374C264.241 353.685 264.313 353.953 264.458 354.179C264.607 354.405 264.801 354.594 265.04 354.748C265.283 354.897 265.543 355.023 265.82 355.125C266.097 355.223 266.363 355.304 266.619 355.368L267.897 355.7C268.315 355.803 268.743 355.941 269.182 356.116C269.621 356.29 270.028 356.521 270.403 356.806C270.778 357.092 271.08 357.445 271.31 357.867C271.545 358.289 271.662 358.794 271.662 359.382C271.662 360.124 271.47 360.782 271.087 361.357C270.707 361.933 270.156 362.386 269.431 362.719C268.711 363.051 267.839 363.217 266.817 363.217C265.837 363.217 264.989 363.062 264.273 362.751C263.557 362.44 262.996 361.999 262.592 361.428C262.187 360.852 261.963 360.17 261.92 359.382H263.902C263.94 359.855 264.094 360.249 264.362 360.565C264.635 360.876 264.982 361.108 265.404 361.261C265.83 361.411 266.297 361.485 266.804 361.485C267.362 361.485 267.859 361.398 268.293 361.223C268.732 361.044 269.077 360.797 269.329 360.482C269.58 360.162 269.706 359.789 269.706 359.363C269.706 358.975 269.595 358.658 269.374 358.411C269.156 358.163 268.86 357.959 268.485 357.797C268.114 357.635 267.695 357.492 267.226 357.369L265.679 356.947C264.631 356.661 263.8 356.241 263.186 355.688C262.577 355.134 262.272 354.401 262.272 353.489C262.272 352.734 262.477 352.076 262.886 351.513C263.295 350.951 263.849 350.514 264.548 350.203C265.246 349.888 266.035 349.73 266.913 349.73C267.799 349.73 268.581 349.886 269.259 350.197C269.94 350.508 270.477 350.936 270.869 351.482C271.261 352.023 271.466 352.645 271.483 353.348H269.578ZM276.726 363.217C276.104 363.217 275.541 363.102 275.039 362.872C274.536 362.638 274.137 362.299 273.843 361.856C273.553 361.413 273.409 360.869 273.409 360.226C273.409 359.672 273.515 359.216 273.728 358.858C273.941 358.5 274.229 358.217 274.591 358.008C274.953 357.799 275.358 357.641 275.806 357.535C276.253 357.428 276.709 357.347 277.173 357.292C277.762 357.224 278.239 357.168 278.605 357.126C278.972 357.079 279.238 357.004 279.404 356.902C279.57 356.8 279.654 356.634 279.654 356.403V356.359C279.654 355.8 279.496 355.368 279.181 355.061C278.869 354.754 278.405 354.601 277.787 354.601C277.144 354.601 276.637 354.744 276.266 355.029C275.899 355.31 275.646 355.624 275.505 355.969L273.709 355.56C273.922 354.963 274.233 354.482 274.642 354.115C275.056 353.744 275.531 353.476 276.068 353.31C276.605 353.139 277.169 353.054 277.762 353.054C278.154 353.054 278.569 353.101 279.008 353.195C279.451 353.284 279.865 353.45 280.248 353.693C280.636 353.936 280.953 354.283 281.2 354.735C281.448 355.183 281.571 355.764 281.571 356.48V363H279.705V361.658H279.628C279.504 361.905 279.319 362.148 279.072 362.386C278.825 362.625 278.507 362.823 278.119 362.981C277.732 363.138 277.267 363.217 276.726 363.217ZM277.142 361.683C277.67 361.683 278.122 361.579 278.497 361.37C278.876 361.161 279.164 360.888 279.36 360.552C279.56 360.211 279.66 359.847 279.66 359.459V358.193C279.592 358.261 279.46 358.325 279.264 358.385C279.072 358.44 278.852 358.489 278.605 358.532C278.358 358.57 278.117 358.607 277.883 358.641C277.649 358.67 277.453 358.696 277.295 358.717C276.924 358.764 276.585 358.843 276.279 358.954C275.976 359.065 275.733 359.224 275.55 359.433C275.371 359.638 275.281 359.911 275.281 360.251C275.281 360.724 275.456 361.082 275.806 361.325C276.155 361.564 276.6 361.683 277.142 361.683ZM286.028 357.17V363H284.117V353.182H285.951V354.78H286.073C286.299 354.26 286.652 353.842 287.134 353.527C287.62 353.212 288.231 353.054 288.968 353.054C289.637 353.054 290.223 353.195 290.726 353.476C291.229 353.753 291.619 354.166 291.896 354.716C292.173 355.266 292.311 355.945 292.311 356.755V363H290.4V356.985C290.4 356.273 290.215 355.717 289.844 355.317C289.473 354.912 288.964 354.71 288.316 354.71C287.873 354.71 287.479 354.805 287.134 354.997C286.793 355.189 286.522 355.47 286.322 355.841C286.126 356.207 286.028 356.651 286.028 357.17ZM299.458 353.182V354.716H294.095V353.182H299.458ZM295.533 350.83H297.444V360.117C297.444 360.488 297.5 360.767 297.61 360.955C297.721 361.138 297.864 361.263 298.039 361.332C298.218 361.396 298.412 361.428 298.62 361.428C298.774 361.428 298.908 361.417 299.023 361.396C299.138 361.374 299.228 361.357 299.292 361.344L299.637 362.923C299.526 362.966 299.368 363.009 299.164 363.051C298.959 363.098 298.703 363.124 298.397 363.128C297.894 363.136 297.425 363.047 296.99 362.859C296.556 362.672 296.204 362.382 295.936 361.99C295.667 361.598 295.533 361.106 295.533 360.513V350.83ZM304.429 363.217C303.807 363.217 303.244 363.102 302.742 362.872C302.239 362.638 301.84 362.299 301.546 361.856C301.257 361.413 301.112 360.869 301.112 360.226C301.112 359.672 301.218 359.216 301.431 358.858C301.644 358.5 301.932 358.217 302.294 358.008C302.656 357.799 303.061 357.641 303.509 357.535C303.956 357.428 304.412 357.347 304.877 357.292C305.465 357.224 305.942 357.168 306.308 357.126C306.675 357.079 306.941 357.004 307.107 356.902C307.274 356.8 307.357 356.634 307.357 356.403V356.359C307.357 355.8 307.199 355.368 306.884 355.061C306.573 354.754 306.108 354.601 305.49 354.601C304.847 354.601 304.34 354.744 303.969 355.029C303.602 355.31 303.349 355.624 303.208 355.969L301.412 355.56C301.625 354.963 301.936 354.482 302.345 354.115C302.759 353.744 303.234 353.476 303.771 353.31C304.308 353.139 304.872 353.054 305.465 353.054C305.857 353.054 306.272 353.101 306.711 353.195C307.154 353.284 307.568 353.45 307.951 353.693C308.339 353.936 308.656 354.283 308.904 354.735C309.151 355.183 309.274 355.764 309.274 356.48V363H307.408V361.658H307.331C307.208 361.905 307.022 362.148 306.775 362.386C306.528 362.625 306.21 362.823 305.823 362.981C305.435 363.138 304.97 363.217 304.429 363.217ZM304.845 361.683C305.373 361.683 305.825 361.579 306.2 361.37C306.579 361.161 306.867 360.888 307.063 360.552C307.263 360.211 307.363 359.847 307.363 359.459V358.193C307.295 358.261 307.163 358.325 306.967 358.385C306.775 358.44 306.556 358.489 306.308 358.532C306.061 358.57 305.82 358.607 305.586 358.641C305.352 358.67 305.156 358.696 304.998 358.717C304.627 358.764 304.289 358.843 303.982 358.954C303.679 359.065 303.436 359.224 303.253 359.433C303.074 359.638 302.985 359.911 302.985 360.251C302.985 360.724 303.159 361.082 303.509 361.325C303.858 361.564 304.303 361.683 304.845 361.683ZM327.61 354.166H325.616C325.539 353.74 325.396 353.365 325.187 353.041C324.979 352.717 324.723 352.442 324.42 352.217C324.118 351.991 323.779 351.82 323.404 351.705C323.033 351.59 322.639 351.533 322.221 351.533C321.467 351.533 320.792 351.722 320.195 352.102C319.603 352.481 319.134 353.037 318.789 353.77C318.448 354.503 318.278 355.398 318.278 356.455C318.278 357.52 318.448 358.419 318.789 359.152C319.134 359.885 319.605 360.439 320.202 360.814C320.798 361.189 321.469 361.376 322.215 361.376C322.628 361.376 323.02 361.321 323.391 361.21C323.766 361.095 324.105 360.927 324.407 360.705C324.71 360.484 324.966 360.213 325.175 359.893C325.388 359.57 325.535 359.199 325.616 358.781L327.61 358.788C327.503 359.431 327.297 360.023 326.99 360.565C326.687 361.102 326.297 361.566 325.82 361.958C325.347 362.346 324.806 362.646 324.197 362.859C323.587 363.072 322.922 363.179 322.202 363.179C321.069 363.179 320.059 362.911 319.172 362.374C318.286 361.832 317.587 361.059 317.076 360.053C316.569 359.048 316.315 357.848 316.315 356.455C316.315 355.057 316.571 353.857 317.082 352.856C317.594 351.85 318.292 351.079 319.179 350.542C320.065 350.001 321.073 349.73 322.202 349.73C322.897 349.73 323.545 349.83 324.145 350.031C324.751 350.227 325.294 350.516 325.775 350.9C326.257 351.279 326.655 351.744 326.971 352.293C327.286 352.839 327.499 353.463 327.61 354.166ZM332.677 363.217C332.055 363.217 331.493 363.102 330.99 362.872C330.487 362.638 330.088 362.299 329.794 361.856C329.505 361.413 329.36 360.869 329.36 360.226C329.36 359.672 329.466 359.216 329.679 358.858C329.892 358.5 330.18 358.217 330.542 358.008C330.904 357.799 331.309 357.641 331.757 357.535C332.204 357.428 332.66 357.347 333.125 357.292C333.713 357.224 334.19 357.168 334.556 357.126C334.923 357.079 335.189 357.004 335.355 356.902C335.522 356.8 335.605 356.634 335.605 356.403V356.359C335.605 355.8 335.447 355.368 335.132 355.061C334.821 354.754 334.356 354.601 333.738 354.601C333.095 354.601 332.588 354.744 332.217 355.029C331.85 355.31 331.597 355.624 331.456 355.969L329.66 355.56C329.873 354.963 330.184 354.482 330.593 354.115C331.007 353.744 331.482 353.476 332.019 353.31C332.556 353.139 333.12 353.054 333.713 353.054C334.105 353.054 334.52 353.101 334.959 353.195C335.402 353.284 335.816 353.45 336.199 353.693C336.587 353.936 336.904 354.283 337.152 354.735C337.399 355.183 337.522 355.764 337.522 356.48V363H335.656V361.658H335.579C335.456 361.905 335.27 362.148 335.023 362.386C334.776 362.625 334.458 362.823 334.071 362.981C333.683 363.138 333.218 363.217 332.677 363.217ZM333.093 361.683C333.621 361.683 334.073 361.579 334.448 361.37C334.827 361.161 335.115 360.888 335.311 360.552C335.511 360.211 335.611 359.847 335.611 359.459V358.193C335.543 358.261 335.411 358.325 335.215 358.385C335.023 358.44 334.804 358.489 334.556 358.532C334.309 358.57 334.069 358.607 333.834 358.641C333.6 358.67 333.404 358.696 333.246 358.717C332.875 358.764 332.537 358.843 332.23 358.954C331.927 359.065 331.684 359.224 331.501 359.433C331.322 359.638 331.233 359.911 331.233 360.251C331.233 360.724 331.407 361.082 331.757 361.325C332.106 361.564 332.551 361.683 333.093 361.683ZM344.651 353.182V354.716H339.288V353.182H344.651ZM340.726 350.83H342.638V360.117C342.638 360.488 342.693 360.767 342.804 360.955C342.915 361.138 343.057 361.263 343.232 361.332C343.411 361.396 343.605 361.428 343.814 361.428C343.967 361.428 344.101 361.417 344.216 361.396C344.331 361.374 344.421 361.357 344.485 361.344L344.83 362.923C344.719 362.966 344.562 363.009 344.357 363.051C344.153 363.098 343.897 363.124 343.59 363.128C343.087 363.136 342.618 363.047 342.184 362.859C341.749 362.672 341.398 362.382 341.129 361.99C340.861 361.598 340.726 361.106 340.726 360.513V350.83ZM349.623 363.217C349 363.217 348.438 363.102 347.935 362.872C347.432 362.638 347.034 362.299 346.74 361.856C346.45 361.413 346.305 360.869 346.305 360.226C346.305 359.672 346.412 359.216 346.625 358.858C346.838 358.5 347.125 358.217 347.488 358.008C347.85 357.799 348.255 357.641 348.702 357.535C349.15 357.428 349.605 357.347 350.07 357.292C350.658 357.224 351.135 357.168 351.502 357.126C351.868 357.079 352.135 357.004 352.301 356.902C352.467 356.8 352.55 356.634 352.55 356.403V356.359C352.55 355.8 352.392 355.368 352.077 355.061C351.766 354.754 351.301 354.601 350.684 354.601C350.04 354.601 349.533 354.744 349.162 355.029C348.796 355.31 348.542 355.624 348.402 355.969L346.605 355.56C346.819 354.963 347.13 354.482 347.539 354.115C347.952 353.744 348.427 353.476 348.964 353.31C349.501 353.139 350.066 353.054 350.658 353.054C351.05 353.054 351.466 353.101 351.904 353.195C352.348 353.284 352.761 353.45 353.145 353.693C353.532 353.936 353.85 354.283 354.097 354.735C354.344 355.183 354.468 355.764 354.468 356.48V363H352.601V361.658H352.525C352.401 361.905 352.216 362.148 351.968 362.386C351.721 362.625 351.404 362.823 351.016 362.981C350.628 363.138 350.164 363.217 349.623 363.217ZM350.038 361.683C350.566 361.683 351.018 361.579 351.393 361.37C351.772 361.161 352.06 360.888 352.256 360.552C352.456 360.211 352.556 359.847 352.556 359.459V358.193C352.488 358.261 352.356 358.325 352.16 358.385C351.968 358.44 351.749 358.489 351.502 358.532C351.255 358.57 351.014 358.607 350.779 358.641C350.545 358.67 350.349 358.696 350.191 358.717C349.821 358.764 349.482 358.843 349.175 358.954C348.873 359.065 348.63 359.224 348.446 359.433C348.267 359.638 348.178 359.911 348.178 360.251C348.178 360.724 348.353 361.082 348.702 361.325C349.051 361.564 349.497 361.683 350.038 361.683ZM357.013 363V353.182H358.861V354.741H358.963C359.142 354.213 359.457 353.798 359.909 353.495C360.365 353.188 360.881 353.035 361.456 353.035C361.575 353.035 361.716 353.039 361.878 353.048C362.044 353.056 362.174 353.067 362.268 353.08V354.908C362.191 354.886 362.055 354.863 361.858 354.837C361.662 354.808 361.466 354.793 361.27 354.793C360.819 354.793 360.416 354.888 360.062 355.08C359.713 355.268 359.436 355.53 359.231 355.866C359.027 356.199 358.925 356.578 358.925 357.004V363H357.013ZM363.922 363V353.182H365.833V363H363.922ZM364.887 351.667C364.554 351.667 364.269 351.556 364.03 351.335C363.796 351.109 363.679 350.84 363.679 350.529C363.679 350.214 363.796 349.945 364.03 349.724C364.269 349.498 364.554 349.385 364.887 349.385C365.219 349.385 365.502 349.498 365.737 349.724C365.975 349.945 366.095 350.214 366.095 350.529C366.095 350.84 365.975 351.109 365.737 351.335C365.502 351.556 365.219 351.667 364.887 351.667ZM370.315 357.17V363H368.404V353.182H370.238V354.78H370.36C370.586 354.26 370.939 353.842 371.421 353.527C371.907 353.212 372.518 353.054 373.256 353.054C373.925 353.054 374.51 353.195 375.013 353.476C375.516 353.753 375.906 354.166 376.183 354.716C376.46 355.266 376.599 355.945 376.599 356.755V363H374.687V356.985C374.687 356.273 374.502 355.717 374.131 355.317C373.76 354.912 373.251 354.71 372.604 354.71C372.16 354.71 371.766 354.805 371.421 354.997C371.08 355.189 370.809 355.47 370.609 355.841C370.413 356.207 370.315 356.651 370.315 357.17ZM382.019 363.217C381.397 363.217 380.834 363.102 380.331 362.872C379.829 362.638 379.43 362.299 379.136 361.856C378.846 361.413 378.702 360.869 378.702 360.226C378.702 359.672 378.808 359.216 379.021 358.858C379.234 358.5 379.522 358.217 379.884 358.008C380.246 357.799 380.651 357.641 381.099 357.535C381.546 357.428 382.002 357.347 382.466 357.292C383.055 357.224 383.532 357.168 383.898 357.126C384.265 357.079 384.531 357.004 384.697 356.902C384.863 356.8 384.947 356.634 384.947 356.403V356.359C384.947 355.8 384.789 355.368 384.474 355.061C384.162 354.754 383.698 354.601 383.08 354.601C382.437 354.601 381.93 354.744 381.559 355.029C381.192 355.31 380.939 355.624 380.798 355.969L379.002 355.56C379.215 354.963 379.526 354.482 379.935 354.115C380.349 353.744 380.824 353.476 381.361 353.31C381.898 353.139 382.462 353.054 383.055 353.054C383.447 353.054 383.862 353.101 384.301 353.195C384.744 353.284 385.157 353.45 385.541 353.693C385.929 353.936 386.246 354.283 386.493 354.735C386.741 355.183 386.864 355.764 386.864 356.48V363H384.998V361.658H384.921C384.797 361.905 384.612 362.148 384.365 362.386C384.118 362.625 383.8 362.823 383.412 362.981C383.025 363.138 382.56 363.217 382.019 363.217ZM382.434 361.683C382.963 361.683 383.415 361.579 383.79 361.37C384.169 361.161 384.456 360.888 384.653 360.552C384.853 360.211 384.953 359.847 384.953 359.459V358.193C384.885 358.261 384.753 358.325 384.557 358.385C384.365 358.44 384.145 358.489 383.898 358.532C383.651 358.57 383.41 358.607 383.176 358.641C382.942 358.67 382.746 358.696 382.588 358.717C382.217 358.764 381.878 358.843 381.572 358.954C381.269 359.065 381.026 359.224 380.843 359.433C380.664 359.638 380.574 359.911 380.574 360.251C380.574 360.724 380.749 361.082 381.099 361.325C381.448 361.564 381.893 361.683 382.434 361.683Z" fill="#1A1A1A"/>
<path d="M443.298 354.045C443.174 353.657 443.008 353.31 442.799 353.003C442.594 352.692 442.349 352.428 442.064 352.21C441.778 351.989 441.452 351.82 441.086 351.705C440.724 351.59 440.325 351.533 439.891 351.533C439.153 351.533 438.489 351.722 437.896 352.102C437.304 352.481 436.835 353.037 436.49 353.77C436.149 354.499 435.979 355.391 435.979 356.448C435.979 357.509 436.151 358.406 436.496 359.139C436.842 359.872 437.315 360.428 437.915 360.808C438.516 361.187 439.2 361.376 439.967 361.376C440.679 361.376 441.299 361.232 441.827 360.942C442.36 360.652 442.771 360.243 443.061 359.714C443.355 359.182 443.502 358.555 443.502 357.835L444.013 357.931H440.268V356.301H445.413V357.79C445.413 358.89 445.179 359.844 444.71 360.654C444.246 361.46 443.602 362.082 442.78 362.521C441.962 362.96 441.024 363.179 439.967 363.179C438.783 363.179 437.743 362.906 436.848 362.361C435.957 361.815 435.263 361.042 434.764 360.04C434.266 359.035 434.016 357.842 434.016 356.461C434.016 355.417 434.161 354.479 434.451 353.648C434.741 352.817 435.148 352.112 435.672 351.533C436.2 350.949 436.82 350.504 437.532 350.197C438.248 349.886 439.03 349.73 439.878 349.73C440.585 349.73 441.244 349.835 441.853 350.043C442.467 350.252 443.012 350.548 443.489 350.932C443.971 351.315 444.369 351.771 444.685 352.3C445 352.824 445.213 353.406 445.324 354.045H443.298ZM451.903 363.198C450.982 363.198 450.179 362.987 449.493 362.565C448.807 362.143 448.274 361.553 447.895 360.795C447.516 360.036 447.326 359.15 447.326 358.136C447.326 357.117 447.516 356.227 447.895 355.464C448.274 354.701 448.807 354.109 449.493 353.687C450.179 353.265 450.982 353.054 451.903 353.054C452.823 353.054 453.627 353.265 454.313 353.687C454.999 354.109 455.531 354.701 455.911 355.464C456.29 356.227 456.48 357.117 456.48 358.136C456.48 359.15 456.29 360.036 455.911 360.795C455.531 361.553 454.999 362.143 454.313 362.565C453.627 362.987 452.823 363.198 451.903 363.198ZM451.909 361.594C452.506 361.594 453 361.436 453.392 361.121C453.784 360.805 454.074 360.386 454.262 359.862C454.453 359.337 454.549 358.76 454.549 358.129C454.549 357.503 454.453 356.928 454.262 356.403C454.074 355.875 453.784 355.451 453.392 355.131C453 354.812 452.506 354.652 451.909 354.652C451.308 354.652 450.81 354.812 450.414 355.131C450.021 355.451 449.73 355.875 449.538 356.403C449.35 356.928 449.257 357.503 449.257 358.129C449.257 358.76 449.35 359.337 449.538 359.862C449.73 360.386 450.021 360.805 450.414 361.121C450.81 361.436 451.308 361.594 451.909 361.594ZM458.613 363V353.182H460.524V363H458.613ZM459.578 351.667C459.246 351.667 458.96 351.556 458.722 351.335C458.487 351.109 458.37 350.84 458.37 350.529C458.37 350.214 458.487 349.945 458.722 349.724C458.96 349.498 459.246 349.385 459.578 349.385C459.911 349.385 460.194 349.498 460.428 349.724C460.667 349.945 460.786 350.214 460.786 350.529C460.786 350.84 460.667 351.109 460.428 351.335C460.194 351.556 459.911 351.667 459.578 351.667ZM465.953 363.217C465.33 363.217 464.768 363.102 464.265 362.872C463.762 362.638 463.364 362.299 463.07 361.856C462.78 361.413 462.635 360.869 462.635 360.226C462.635 359.672 462.742 359.216 462.955 358.858C463.168 358.5 463.455 358.217 463.818 358.008C464.18 357.799 464.585 357.641 465.032 357.535C465.48 357.428 465.936 357.347 466.4 357.292C466.988 357.224 467.465 357.168 467.832 357.126C468.198 357.079 468.465 357.004 468.631 356.902C468.797 356.8 468.88 356.634 468.88 356.403V356.359C468.88 355.8 468.722 355.368 468.407 355.061C468.096 354.754 467.632 354.601 467.014 354.601C466.37 354.601 465.863 354.744 465.492 355.029C465.126 355.31 464.872 355.624 464.732 355.969L462.936 355.56C463.149 354.963 463.46 354.482 463.869 354.115C464.282 353.744 464.757 353.476 465.294 353.31C465.831 353.139 466.396 353.054 466.988 353.054C467.38 353.054 467.796 353.101 468.235 353.195C468.678 353.284 469.091 353.45 469.475 353.693C469.862 353.936 470.18 354.283 470.427 354.735C470.674 355.183 470.798 355.764 470.798 356.48V363H468.931V361.658H468.855C468.731 361.905 468.546 362.148 468.298 362.386C468.051 362.625 467.734 362.823 467.346 362.981C466.958 363.138 466.494 363.217 465.953 363.217ZM466.368 361.683C466.896 361.683 467.348 361.579 467.723 361.37C468.102 361.161 468.39 360.888 468.586 360.552C468.786 360.211 468.887 359.847 468.887 359.459V358.193C468.818 358.261 468.686 358.325 468.49 358.385C468.298 358.44 468.079 358.489 467.832 358.532C467.585 358.57 467.344 358.607 467.11 358.641C466.875 358.67 466.679 358.696 466.521 358.717C466.151 358.764 465.812 358.843 465.505 358.954C465.203 359.065 464.96 359.224 464.776 359.433C464.597 359.638 464.508 359.911 464.508 360.251C464.508 360.724 464.683 361.082 465.032 361.325C465.382 361.564 465.827 361.683 466.368 361.683ZM480.701 355.579L478.968 355.886C478.896 355.664 478.781 355.453 478.623 355.253C478.47 355.053 478.261 354.888 477.997 354.761C477.733 354.633 477.402 354.569 477.006 354.569C476.465 354.569 476.013 354.69 475.651 354.933C475.289 355.172 475.108 355.481 475.108 355.86C475.108 356.188 475.229 356.452 475.472 356.653C475.715 356.853 476.107 357.017 476.648 357.145L478.208 357.503C479.111 357.712 479.784 358.033 480.228 358.468C480.671 358.903 480.892 359.467 480.892 360.162C480.892 360.75 480.722 361.274 480.381 361.734C480.044 362.19 479.574 362.548 478.968 362.808C478.368 363.068 477.671 363.198 476.878 363.198C475.779 363.198 474.882 362.964 474.187 362.495C473.493 362.022 473.066 361.351 472.909 360.482L474.756 360.2C474.871 360.682 475.108 361.046 475.466 361.293C475.824 361.536 476.29 361.658 476.865 361.658C477.492 361.658 477.993 361.528 478.368 361.268C478.743 361.004 478.93 360.682 478.93 360.303C478.93 359.996 478.815 359.738 478.585 359.529C478.359 359.32 478.012 359.163 477.543 359.056L475.881 358.692C474.965 358.483 474.287 358.151 473.848 357.695C473.414 357.239 473.196 356.661 473.196 355.962C473.196 355.383 473.358 354.876 473.682 354.441C474.006 354.006 474.453 353.668 475.025 353.425C475.596 353.178 476.25 353.054 476.987 353.054C478.048 353.054 478.883 353.284 479.493 353.744C480.102 354.2 480.505 354.812 480.701 355.579Z" fill="#1A1A1A"/>
<circle cx="11.5" cy="356.5" r="10.5" fill="#44C980"/>
<circle cx="115.5" cy="356.5" r="10.5" fill="#2462ED"/>
<circle cx="245.5" cy="356.5" r="10.5" fill="#EA499B"/>
<circle cx="417.5" cy="356.5" r="10.5" fill="#EDA53C"/>
<path d="M160 17C140.332 17 120.872 21.0291 102.821 28.8388C84.77 36.6485 68.5101 48.0733 55.0441 62.4086C41.5781 76.744 31.1914 93.6859 24.5247 112.19C17.858 130.693 15.0525 150.367 16.2813 169.996" stroke="#EA499B" stroke-width="32" stroke-linecap="square" stroke-linejoin="round"/>
<path d="M19.1151 190.79C25.9484 223.107 43.6842 252.092 69.3489 272.886C95.0136 293.679 127.047 305.018 160.078 305C193.109 304.982 225.13 293.609 250.772 272.787C276.414 251.966 294.119 222.961 300.917 190.637" stroke="#2462ED" stroke-width="32" stroke-linecap="square" stroke-linejoin="round"/>
<path d="M277.714 78.0577C266.31 61.8729 251.691 48.2137 234.77 37.9334C217.85 27.653 198.991 20.9724 179.372 18.3089" stroke="#F9D24F" stroke-width="32" stroke-linecap="square" stroke-linejoin="round"/>
<path d="M277.714 78.0577C266.31 61.8729 251.691 48.2137 234.77 37.9334C217.85 27.653 198.991 20.9724 179.372 18.3089" stroke="#EDA53C" stroke-width="32" stroke-linecap="square" stroke-linejoin="round"/>
<path d="M303.748 169.516C305.362 142.265 299.197 115.116 285.971 91.2347" stroke="#44C980" stroke-width="32" stroke-linecap="square" stroke-linejoin="round"/>
</svg>
