<svg width="18" height="18" viewBox="0 0 18 18" fill="none" xmlns="http://www.w3.org/2000/svg">
<path d="M17.4375 16.875H16.3125V15.1875C16.3125 14.7399 16.1347 14.3107 15.8182 13.9943C15.5018 13.6778 15.0726 13.5 14.625 13.5H12.375C11.9274 13.5 11.4982 13.6778 11.1818 13.9943C10.8653 14.3107 10.6875 14.7399 10.6875 15.1875V16.875H9.5625V15.1875C9.5625 14.4416 9.85882 13.7262 10.3863 13.1988C10.9137 12.6713 11.6291 12.375 12.375 12.375H14.625C15.3709 12.375 16.0863 12.6713 16.6137 13.1988C17.1412 13.7262 17.4375 14.4416 17.4375 15.1875V16.875ZM13.5 6.75C13.8338 6.75 14.16 6.84897 14.4375 7.0344C14.715 7.21982 14.9313 7.48337 15.059 7.79172C15.1868 8.10007 15.2202 8.43937 15.1551 8.76672C15.09 9.09406 14.9292 9.39474 14.6932 9.63074C14.4572 9.86674 14.1566 10.0275 13.8292 10.0926C13.5019 10.1577 13.1626 10.1243 12.8542 9.99655C12.5459 9.86882 12.2823 9.65253 12.0969 9.37502C11.9115 9.09752 11.8125 8.77126 11.8125 8.4375C11.8125 7.98995 11.9903 7.56072 12.3068 7.24426C12.6232 6.92779 13.0524 6.75 13.5 6.75ZM13.5 5.625C12.9437 5.625 12.4 5.78995 11.9375 6.09899C11.4749 6.40803 11.1145 6.84729 10.9016 7.3612C10.6887 7.87512 10.633 8.44062 10.7415 8.98619C10.8501 9.53176 11.1179 10.0329 11.5113 10.4262C11.9046 10.8196 12.4057 11.0874 12.9513 11.196C13.4969 11.3045 14.0624 11.2488 14.5763 11.0359C15.0902 10.823 15.5295 10.4626 15.8385 10C16.1475 9.53753 16.3125 8.99376 16.3125 8.4375C16.3125 7.69158 16.0162 6.97621 15.4887 6.44876C14.9613 5.92132 14.2459 5.625 13.5 5.625ZM8.4375 12.375H7.3125V10.6875C7.3125 10.2399 7.13471 9.81072 6.81824 9.49426C6.50178 9.17779 6.07255 9 5.625 9H3.375C2.92745 9 2.49822 9.17779 2.18176 9.49426C1.86529 9.81072 1.6875 10.2399 1.6875 10.6875V12.375H0.5625V10.6875C0.5625 9.94158 0.858816 9.22621 1.38626 8.69876C1.91371 8.17132 2.62908 7.875 3.375 7.875H5.625C6.37092 7.875 7.08629 8.17132 7.61374 8.69876C8.14118 9.22621 8.4375 9.94158 8.4375 10.6875V12.375ZM4.5 2.25C4.83376 2.25 5.16002 2.34897 5.43752 2.5344C5.71503 2.71982 5.93132 2.98337 6.05905 3.29172C6.18677 3.60007 6.22019 3.93937 6.15508 4.26671C6.08996 4.59406 5.92924 4.89474 5.69324 5.13074C5.45724 5.36674 5.15656 5.52746 4.82922 5.59258C4.50187 5.65769 4.16257 5.62427 3.85422 5.49655C3.54587 5.36882 3.28232 5.15253 3.0969 4.87502C2.91147 4.59752 2.8125 4.27126 2.8125 3.9375C2.8125 3.48995 2.99029 3.06072 3.30676 2.74426C3.62322 2.42779 4.05245 2.25 4.5 2.25ZM4.5 1.125C3.94374 1.125 3.39997 1.28995 2.93746 1.59899C2.47495 1.90803 2.11446 2.34729 1.90159 2.8612C1.68872 3.37512 1.63302 3.94062 1.74154 4.48619C1.85006 5.03176 2.11793 5.5329 2.51126 5.92624C2.9046 6.31957 3.40574 6.58744 3.95131 6.69596C4.49688 6.80448 5.06238 6.74878 5.5763 6.53591C6.09021 6.32304 6.52947 5.96255 6.83851 5.50004C7.14755 5.03753 7.3125 4.49376 7.3125 3.9375C7.3125 3.19158 7.01618 2.47621 6.48874 1.94876C5.96129 1.42132 5.24592 1.125 4.5 1.125Z" fill="#83939D"/>
</svg>
