<svg width="27" height="35" viewBox="0 0 27 35" fill="none" xmlns="http://www.w3.org/2000/svg">
<path d="M26.625 30.625V9.84375L16.7812 0H4.75C3.58968 0 2.47688 0.460936 1.65641 1.28141C0.835936 2.10188 0.375 3.21468 0.375 4.375V30.625C0.375 31.7853 0.835936 32.8981 1.65641 33.7186C2.47688 34.5391 3.58968 35 4.75 35H22.25C23.4103 35 24.5231 34.5391 25.3436 33.7186C26.1641 32.8981 26.625 31.7853 26.625 30.625ZM16.7812 6.5625C16.7812 7.43274 17.127 8.26734 17.7423 8.88269C18.3577 9.49805 19.1923 9.84375 20.0625 9.84375H24.4375V30.625C24.4375 31.2052 24.207 31.7616 23.7968 32.1718C23.3866 32.582 22.8302 32.8125 22.25 32.8125H4.75C4.16984 32.8125 3.61344 32.582 3.2032 32.1718C2.79297 31.7616 2.5625 31.2052 2.5625 30.625V4.375C2.5625 3.79484 2.79297 3.23844 3.2032 2.8282C3.61344 2.41797 4.16984 2.1875 4.75 2.1875H16.7812V6.5625Z" fill="#913038"/>
<path d="M6.06928 30.8155C5.64292 30.645 5.29941 30.3156 5.11116 29.8967C4.68459 29.048 4.82678 28.1992 5.28616 27.4861C5.71928 26.8146 6.43678 26.2436 7.24834 25.7646C8.27633 25.1815 9.36298 24.7086 10.4902 24.3536C11.3656 22.7799 12.1415 21.1529 12.8133 19.4821C12.4117 18.5694 12.0967 17.6209 11.8727 16.6492C11.6846 15.7742 11.6124 14.908 11.7721 14.1642C11.9362 13.3899 12.3715 12.6942 13.194 12.3639C13.614 12.1955 14.069 12.1014 14.5108 12.1955C14.7331 12.2428 14.9421 12.339 15.1226 12.4771C15.303 12.6152 15.4505 12.7918 15.5543 12.9939C15.7468 13.3527 15.8168 13.7727 15.8321 14.1708C15.8474 14.5821 15.8058 15.0371 15.7293 15.5139C15.5455 16.6296 15.1387 17.9946 14.5918 19.4383C15.1953 20.729 15.9127 21.9632 16.7355 23.1264C17.7092 23.0495 18.6885 23.0862 19.6537 23.2358C20.4499 23.3802 21.2593 23.6624 21.7537 24.253C22.0162 24.568 22.1758 24.953 22.1912 25.3861C22.2065 25.8061 22.0883 26.2217 21.8893 26.6177C21.7169 26.9846 21.4495 27.2988 21.1149 27.5277C20.7842 27.7434 20.3937 27.8491 19.9993 27.8296C19.2752 27.7989 18.5687 27.4008 17.9583 26.9174C17.2162 26.3038 16.5475 25.6064 15.9655 24.8392C14.4862 25.0071 13.0245 25.3043 11.5971 25.7274C10.9434 26.8866 10.1972 27.9913 9.36584 29.0305C8.72709 29.7961 8.03366 30.4655 7.33803 30.7521C6.93835 30.9329 6.48501 30.9555 6.06928 30.8155ZM9.08584 26.6571C8.72272 26.8233 8.38584 26.9983 8.08178 27.1777C7.36428 27.6021 6.89834 28.0155 6.66647 28.3742C6.46084 28.6914 6.45647 28.9211 6.57897 29.1639C6.60084 29.2121 6.62272 29.2427 6.63584 29.2602C6.66194 29.2532 6.68753 29.2444 6.71241 29.2339C7.01209 29.1114 7.48897 28.7199 8.10147 27.9827C8.44982 27.5562 8.77829 27.1138 9.08584 26.6571ZM12.6733 23.7477C13.4038 23.5772 14.1409 23.4364 14.8827 23.3255C14.4844 22.716 14.1122 22.0898 13.7671 21.4486C13.424 22.2243 13.0593 22.9902 12.6733 23.7455V23.7477ZM18.024 24.7321C18.3521 25.0886 18.6715 25.3883 18.9755 25.6289C19.5005 26.0446 19.8658 26.1824 20.0649 26.1889C20.1182 26.1959 20.1723 26.1843 20.218 26.1561C20.309 26.0843 20.3799 25.99 20.4237 25.8827C20.5014 25.7494 20.5457 25.5993 20.5527 25.4452C20.5515 25.3938 20.5312 25.3447 20.4958 25.3074C20.3821 25.1717 20.0583 24.9749 19.3627 24.8502C18.9202 24.7762 18.4726 24.7374 18.024 24.7342V24.7321ZM13.6708 17.0627C13.8549 16.4688 14.0011 15.8638 14.1083 15.2514C14.1762 14.8402 14.2024 14.5011 14.1915 14.2342C14.1921 14.087 14.1684 13.9407 14.1215 13.8011C14.012 13.8147 13.9052 13.8441 13.8043 13.8886C13.614 13.9652 13.4587 14.1205 13.3755 14.5077C13.288 14.9277 13.3099 15.5336 13.4762 16.3058C13.5287 16.5486 13.5943 16.8024 13.673 17.0627H13.6708Z" fill="#913038"/>
</svg>
