<svg width="577" height="56" viewBox="0 0 577 56" fill="none" xmlns="http://www.w3.org/2000/svg">
<path d="M0 4C0 1.79086 1.79086 0 4 0H573C575.209 0 577 1.79086 577 4V52C577 54.2091 575.209 56 573 56H4.00002C1.79088 56 0 54.2091 0 52V4Z" fill="white"/>
<path d="M4 2H573V-2H4V2ZM575 4V52H579V4H575ZM573 54H4.00002V58H573V54ZM2 52V4H-2V52H2ZM4.00002 54C2.89544 54 2 53.1046 2 52H-2C-2 55.3137 0.686319 58 4.00002 58V54ZM575 52C575 53.1046 574.105 54 573 54V58C576.314 58 579 55.3137 579 52H575ZM573 2C574.105 2 575 2.89544 575 4H579C579 0.686281 576.314 -2 573 -2V2ZM4 -2C0.686291 -2 -2 0.686294 -2 4H2C2 2.89543 2.89543 2 4 2V-2Z" fill="#CACACA"/>
<path d="M541.887 31.2722C541.57 31.5759 541.055 31.5759 540.738 31.2722C540.421 30.9685 540.421 30.476 540.738 30.1723L546.425 24.7278C546.743 24.4241 547.257 24.4241 547.575 24.7278L553.262 30.1723C553.579 30.476 553.579 30.9685 553.262 31.2722C552.945 31.5759 552.43 31.5759 552.113 31.2722L547 26.3777L541.887 31.2722Z" fill="#252AFF"/>
<path d="M28.7443 25.1818C28.6676 24.5341 28.3565 24.0312 27.8111 23.6733C27.2656 23.3153 26.5966 23.1364 25.804 23.1364C25.2244 23.1364 24.7173 23.2301 24.2827 23.4176C23.8523 23.6051 23.5156 23.8629 23.2727 24.1911C23.0341 24.5192 22.9148 24.892 22.9148 25.3097C22.9148 25.6591 22.9979 25.9595 23.1641 26.2109C23.3345 26.4581 23.5518 26.6648 23.8161 26.831C24.0803 26.9929 24.3572 27.1271 24.647 27.2337C24.9368 27.3359 25.2031 27.419 25.446 27.483L26.7756 27.8409C27.1165 27.9304 27.4957 28.054 27.9134 28.2116C28.3352 28.3693 28.7379 28.5845 29.1214 28.8572C29.5092 29.1257 29.8288 29.4709 30.0803 29.8928C30.3317 30.3146 30.4574 30.8324 30.4574 31.446C30.4574 32.1534 30.272 32.7926 29.9013 33.3636C29.5348 33.9347 28.9979 34.3885 28.2905 34.7251C27.5874 35.0618 26.733 35.2301 25.7273 35.2301C24.7898 35.2301 23.978 35.0788 23.2919 34.7763C22.6101 34.4737 22.0732 34.0518 21.6811 33.5107C21.2933 32.9695 21.0739 32.3409 21.0227 31.625H22.6591C22.7017 32.1193 22.8679 32.5284 23.1577 32.8523C23.4517 33.1719 23.8224 33.4105 24.2699 33.5682C24.7216 33.7216 25.2074 33.7983 25.7273 33.7983C26.3324 33.7983 26.8757 33.7003 27.3572 33.5043C27.8388 33.304 28.2202 33.027 28.5014 32.6733C28.7827 32.3153 28.9233 31.8977 28.9233 31.4205C28.9233 30.9858 28.8018 30.6321 28.5589 30.3594C28.3161 30.0866 27.9964 29.8651 27.6001 29.6946C27.2038 29.5241 26.7756 29.375 26.3153 29.2472L24.7045 28.7869C23.6818 28.4929 22.8722 28.0732 22.2756 27.5277C21.679 26.9822 21.3807 26.2685 21.3807 25.3864C21.3807 24.6534 21.5788 24.0142 21.9751 23.4688C22.3757 22.919 22.9126 22.4929 23.5859 22.1903C24.2635 21.8835 25.0199 21.7301 25.8551 21.7301C26.6989 21.7301 27.4489 21.8814 28.1051 22.1839C28.7614 22.4822 29.2813 22.8913 29.6648 23.4112C30.0526 23.9311 30.2571 24.5213 30.2784 25.1818H28.7443ZM36.9757 35.2045C36.0297 35.2045 35.2136 34.9957 34.5275 34.5781C33.8457 34.1562 33.3194 33.5682 32.9487 32.8139C32.5822 32.0554 32.399 31.1733 32.399 30.1676C32.399 29.1619 32.5822 28.2756 32.9487 27.5085C33.3194 26.7372 33.835 26.1364 34.4956 25.706C35.1603 25.2713 35.9359 25.054 36.8223 25.054C37.3336 25.054 37.8386 25.1392 38.3372 25.3097C38.8358 25.4801 39.2896 25.7571 39.6987 26.1406C40.1078 26.5199 40.4338 27.0227 40.6767 27.6491C40.9196 28.2756 41.041 29.0469 41.041 29.9631V30.6023H33.4728V29.2983H39.5069C39.5069 28.7443 39.3961 28.25 39.1745 27.8153C38.9572 27.3807 38.6461 27.0376 38.2413 26.7862C37.8407 26.5348 37.3677 26.4091 36.8223 26.4091C36.2214 26.4091 35.7015 26.5582 35.2626 26.8565C34.8279 27.1506 34.4934 27.5341 34.2591 28.0071C34.0247 28.4801 33.9075 28.9872 33.9075 29.5284V30.3977C33.9075 31.1392 34.0353 31.7678 34.291 32.2834C34.551 32.7947 34.911 33.1847 35.3713 33.4531C35.8315 33.7173 36.3663 33.8494 36.9757 33.8494C37.372 33.8494 37.7299 33.794 38.0495 33.6832C38.3734 33.5682 38.6525 33.3977 38.8869 33.1719C39.1213 32.9418 39.3024 32.6562 39.4302 32.3153L40.8876 32.7244C40.7342 33.2188 40.4764 33.6534 40.1142 34.0284C39.752 34.3991 39.3045 34.6889 38.7718 34.8977C38.2392 35.1023 37.6404 35.2045 36.9757 35.2045ZM47.2988 38.8864C46.5701 38.8864 45.9437 38.7926 45.4196 38.6051C44.8954 38.4219 44.4586 38.179 44.1092 37.8764C43.764 37.5781 43.4892 37.2585 43.2846 36.9176L44.4863 36.0739C44.6227 36.2528 44.7953 36.4574 45.0041 36.6875C45.2129 36.9219 45.4984 37.1243 45.8606 37.2947C46.2271 37.4695 46.7065 37.5568 47.2988 37.5568C48.0914 37.5568 48.7456 37.3651 49.2612 36.9815C49.7768 36.598 50.0346 35.9972 50.0346 35.179V33.1847H49.9068C49.796 33.3636 49.6383 33.5852 49.4338 33.8494C49.2335 34.1094 48.9437 34.3416 48.5645 34.5462C48.1895 34.7464 47.6824 34.8466 47.0431 34.8466C46.2505 34.8466 45.5389 34.6591 44.9082 34.2841C44.2818 33.9091 43.7853 33.3636 43.4189 32.6477C43.0566 31.9318 42.8755 31.0625 42.8755 30.0398C42.8755 29.0341 43.0524 28.1584 43.4061 27.4126C43.7598 26.6626 44.252 26.0831 44.8826 25.674C45.5133 25.2607 46.242 25.054 47.0687 25.054C47.7079 25.054 48.215 25.1605 48.59 25.3736C48.9693 25.5824 49.2591 25.821 49.4593 26.0895C49.6639 26.3537 49.8216 26.571 49.9324 26.7415H50.0858V25.1818H51.5431V35.2812C51.5431 36.125 51.3514 36.8111 50.9679 37.3395C50.5886 37.8722 50.0772 38.2621 49.4338 38.5092C48.7946 38.7607 48.0829 38.8864 47.2988 38.8864ZM47.2477 33.4915C47.8528 33.4915 48.3642 33.353 48.7818 33.076C49.1994 32.799 49.5169 32.4006 49.7342 31.8807C49.9515 31.3608 50.0602 30.7386 50.0602 30.0142C50.0602 29.3068 49.9537 28.6825 49.7406 28.1413C49.5275 27.6001 49.2122 27.1761 48.7946 26.8693C48.377 26.5625 47.8613 26.4091 47.2477 26.4091C46.6085 26.4091 46.0758 26.571 45.6497 26.8949C45.2278 27.2187 44.9103 27.6534 44.6973 28.1989C44.4885 28.7443 44.3841 29.3494 44.3841 30.0142C44.3841 30.696 44.4906 31.299 44.7037 31.8232C44.921 32.343 45.2406 32.7521 45.6625 33.0504C46.0886 33.3445 46.617 33.4915 47.2477 33.4915ZM60.492 30.9858V25.1818H62.0005V35H60.492V33.3381H60.3897C60.1596 33.8366 59.8017 34.2607 59.3159 34.6101C58.8301 34.9553 58.2164 35.1278 57.475 35.1278C56.8613 35.1278 56.3159 34.9936 55.8386 34.7251C55.3613 34.4524 54.9863 34.0433 54.7136 33.4979C54.4409 32.9482 54.3045 32.2557 54.3045 31.4205V25.1818H55.813V31.3182C55.813 32.0341 56.0133 32.6051 56.4139 33.0312C56.8187 33.4574 57.3343 33.6705 57.9608 33.6705C58.3358 33.6705 58.7172 33.5746 59.1049 33.3828C59.497 33.1911 59.8251 32.897 60.0893 32.5007C60.3578 32.1044 60.492 31.5994 60.492 30.9858ZM64.7635 35V25.1818H66.2209V26.6648H66.3232C66.5021 26.179 66.826 25.7848 67.2947 25.4822C67.7635 25.1797 68.2919 25.0284 68.88 25.0284C68.9908 25.0284 69.1293 25.0305 69.2955 25.0348C69.4616 25.0391 69.5874 25.0455 69.6726 25.054V26.5881C69.6214 26.5753 69.5043 26.5561 69.321 26.5305C69.142 26.5007 68.9524 26.4858 68.7521 26.4858C68.2749 26.4858 67.8487 26.5859 67.4737 26.7862C67.103 26.9822 66.8089 27.255 66.5916 27.6044C66.3786 27.9496 66.272 28.3437 66.272 28.7869V35H64.7635ZM75.1506 35.2045C74.2642 35.2045 73.4865 34.9936 72.8175 34.5717C72.1527 34.1499 71.6328 33.5597 71.2578 32.8011C70.8871 32.0426 70.7017 31.1562 70.7017 30.142C70.7017 29.1193 70.8871 28.2266 71.2578 27.4638C71.6328 26.701 72.1527 26.1087 72.8175 25.6868C73.4865 25.2649 74.2642 25.054 75.1506 25.054C76.0369 25.054 76.8125 25.2649 77.4773 25.6868C78.1463 26.1087 78.6662 26.701 79.0369 27.4638C79.4119 28.2266 79.5994 29.1193 79.5994 30.142C79.5994 31.1562 79.4119 32.0426 79.0369 32.8011C78.6662 33.5597 78.1463 34.1499 77.4773 34.5717C76.8125 34.9936 76.0369 35.2045 75.1506 35.2045ZM75.1506 33.8494C75.8239 33.8494 76.3778 33.6768 76.8125 33.3317C77.2472 32.9865 77.5689 32.5327 77.7777 31.9702C77.9865 31.4077 78.0909 30.7983 78.0909 30.142C78.0909 29.4858 77.9865 28.8743 77.7777 28.3075C77.5689 27.7408 77.2472 27.2827 76.8125 26.9332C76.3778 26.5838 75.8239 26.4091 75.1506 26.4091C74.4773 26.4091 73.9233 26.5838 73.4886 26.9332C73.054 27.2827 72.7322 27.7408 72.5234 28.3075C72.3146 28.8743 72.2102 29.4858 72.2102 30.142C72.2102 30.7983 72.3146 31.4077 72.5234 31.9702C72.7322 32.5327 73.054 32.9865 73.4886 33.3317C73.9233 33.6768 74.4773 33.8494 75.1506 33.8494ZM96.1181 26C95.9775 25.5696 95.7921 25.1839 95.562 24.843C95.3361 24.4979 95.0655 24.2038 94.7502 23.9609C94.4391 23.718 94.0854 23.5327 93.6891 23.4048C93.2928 23.277 92.8581 23.2131 92.3851 23.2131C91.6096 23.2131 90.9043 23.4134 90.2694 23.8139C89.6344 24.2145 89.1294 24.8047 88.7544 25.5845C88.3794 26.3643 88.1919 27.321 88.1919 28.4545C88.1919 29.5881 88.3816 30.5447 88.7608 31.3246C89.1401 32.1044 89.6536 32.6946 90.3013 33.0952C90.949 33.4957 91.6777 33.696 92.4874 33.696C93.2374 33.696 93.8979 33.5362 94.4689 33.2166C95.0442 32.8928 95.4917 32.4368 95.8113 31.8487C96.1351 31.2564 96.2971 30.5597 96.2971 29.7585L96.7828 29.8608H92.8453V28.4545H97.8311V29.8608C97.8311 30.9389 97.601 31.8764 97.1408 32.6733C96.6848 33.4702 96.0542 34.0881 95.2488 34.527C94.4476 34.9616 93.5272 35.179 92.4874 35.179C91.3283 35.179 90.3098 34.9062 89.432 34.3608C88.5584 33.8153 87.8766 33.0398 87.3865 32.0341C86.9007 31.0284 86.6578 29.8352 86.6578 28.4545C86.6578 27.419 86.7963 26.4879 87.0733 25.6612C87.3546 24.8303 87.7509 24.1229 88.2623 23.5391C88.7736 22.9553 89.3787 22.5078 90.0776 22.1967C90.7765 21.8857 91.5456 21.7301 92.3851 21.7301C93.0755 21.7301 93.7189 21.8345 94.3155 22.0433C94.9164 22.2479 95.4512 22.5398 95.9199 22.919C96.3929 23.294 96.7871 23.7436 97.1025 24.2678C97.4178 24.7876 97.6351 25.3651 97.7544 26H96.1181ZM103.231 35.2301C102.609 35.2301 102.044 35.1129 101.537 34.8786C101.03 34.6399 100.627 34.2969 100.329 33.8494C100.031 33.3977 99.8814 32.8523 99.8814 32.2131C99.8814 31.6506 99.9922 31.1946 100.214 30.8452C100.435 30.4915 100.732 30.2145 101.102 30.0142C101.473 29.8139 101.882 29.6648 102.33 29.5668C102.781 29.4645 103.235 29.3835 103.691 29.3239C104.288 29.2472 104.771 29.1896 105.142 29.1513C105.517 29.1087 105.79 29.0384 105.96 28.9403C106.135 28.8423 106.222 28.6719 106.222 28.429V28.3778C106.222 27.7472 106.05 27.2571 105.705 26.9077C105.364 26.5582 104.846 26.3835 104.151 26.3835C103.431 26.3835 102.866 26.5412 102.457 26.8565C102.048 27.1719 101.761 27.5085 101.594 27.8665L100.163 27.3551C100.418 26.7585 100.759 26.294 101.185 25.9616C101.616 25.625 102.085 25.3906 102.592 25.2585C103.103 25.1222 103.606 25.054 104.1 25.054C104.415 25.054 104.778 25.0923 105.187 25.169C105.6 25.2415 105.999 25.3928 106.382 25.6229C106.77 25.853 107.092 26.2003 107.347 26.6648C107.603 27.1293 107.731 27.7514 107.731 28.5312V35H106.222V33.6705H106.146C106.043 33.8835 105.873 34.1115 105.634 34.3544C105.396 34.5973 105.078 34.804 104.682 34.9744C104.286 35.1449 103.802 35.2301 103.231 35.2301ZM103.461 33.875C104.058 33.875 104.56 33.7578 104.969 33.5234C105.383 33.2891 105.694 32.9865 105.903 32.6158C106.116 32.245 106.222 31.8551 106.222 31.446V30.0653C106.158 30.142 106.018 30.2124 105.8 30.2763C105.587 30.3359 105.34 30.3892 105.059 30.4361C104.782 30.4787 104.511 30.517 104.247 30.5511C103.987 30.581 103.776 30.6065 103.614 30.6278C103.222 30.679 102.856 30.7621 102.515 30.8771C102.178 30.9879 101.906 31.1562 101.697 31.3821C101.492 31.6037 101.39 31.9062 101.39 32.2898C101.39 32.8139 101.584 33.2102 101.972 33.4787C102.364 33.7429 102.86 33.875 103.461 33.875ZM110.484 35V25.1818H111.942V26.6648H112.044C112.223 26.179 112.547 25.7848 113.015 25.4822C113.484 25.1797 114.013 25.0284 114.601 25.0284C114.711 25.0284 114.85 25.0305 115.016 25.0348C115.182 25.0391 115.308 25.0455 115.393 25.054V26.5881C115.342 26.5753 115.225 26.5561 115.042 26.5305C114.863 26.5007 114.673 26.4858 114.473 26.4858C113.996 26.4858 113.569 26.5859 113.194 26.7862C112.824 26.9822 112.53 27.255 112.312 27.6044C112.099 27.9496 111.993 28.3437 111.993 28.7869V35H110.484ZM120.071 35.2301C119.449 35.2301 118.884 35.1129 118.377 34.8786C117.87 34.6399 117.467 34.2969 117.169 33.8494C116.87 33.3977 116.721 32.8523 116.721 32.2131C116.721 31.6506 116.832 31.1946 117.054 30.8452C117.275 30.4915 117.571 30.2145 117.942 30.0142C118.313 29.8139 118.722 29.6648 119.169 29.5668C119.621 29.4645 120.075 29.3835 120.531 29.3239C121.127 29.2472 121.611 29.1896 121.982 29.1513C122.357 29.1087 122.63 29.0384 122.8 28.9403C122.975 28.8423 123.062 28.6719 123.062 28.429V28.3778C123.062 27.7472 122.89 27.2571 122.544 26.9077C122.203 26.5582 121.686 26.3835 120.991 26.3835C120.271 26.3835 119.706 26.5412 119.297 26.8565C118.888 27.1719 118.6 27.5085 118.434 27.8665L117.002 27.3551C117.258 26.7585 117.599 26.294 118.025 25.9616C118.456 25.625 118.924 25.3906 119.431 25.2585C119.943 25.1222 120.446 25.054 120.94 25.054C121.255 25.054 121.618 25.0923 122.027 25.169C122.44 25.2415 122.838 25.3928 123.222 25.6229C123.61 25.853 123.931 26.2003 124.187 26.6648C124.443 27.1293 124.571 27.7514 124.571 28.5312V35H123.062V33.6705H122.985C122.883 33.8835 122.713 34.1115 122.474 34.3544C122.235 34.5973 121.918 34.804 121.522 34.9744C121.125 35.1449 120.642 35.2301 120.071 35.2301ZM120.301 33.875C120.897 33.875 121.4 33.7578 121.809 33.5234C122.223 33.2891 122.534 32.9865 122.743 32.6158C122.956 32.245 123.062 31.8551 123.062 31.446V30.0653C122.998 30.142 122.858 30.2124 122.64 30.2763C122.427 30.3359 122.18 30.3892 121.899 30.4361C121.622 30.4787 121.351 30.517 121.087 30.5511C120.827 30.581 120.616 30.6065 120.454 30.6278C120.062 30.679 119.696 30.7621 119.355 30.8771C119.018 30.9879 118.745 31.1562 118.537 31.3821C118.332 31.6037 118.23 31.9062 118.23 32.2898C118.23 32.8139 118.424 33.2102 118.811 33.4787C119.203 33.7429 119.7 33.875 120.301 33.875ZM128.833 29.0938V35H127.324V25.1818H128.781V26.7159H128.909C129.139 26.2173 129.489 25.8168 129.958 25.5142C130.426 25.2074 131.031 25.054 131.773 25.054C132.438 25.054 133.019 25.1903 133.518 25.4631C134.017 25.7315 134.404 26.1406 134.681 26.6903C134.958 27.2358 135.097 27.9261 135.097 28.7614V35H133.588V28.8636C133.588 28.0923 133.388 27.4915 132.987 27.0611C132.587 26.6264 132.037 26.4091 131.338 26.4091C130.857 26.4091 130.426 26.5135 130.047 26.7223C129.672 26.9311 129.376 27.2358 129.159 27.6364C128.941 28.0369 128.833 28.5227 128.833 29.0938ZM142.123 25.1818V26.4602H137.035V25.1818H142.123ZM138.518 22.8295H140.027V32.1875C140.027 32.6136 140.088 32.9332 140.212 33.1463C140.34 33.3551 140.502 33.4957 140.698 33.5682C140.898 33.6364 141.109 33.6705 141.331 33.6705C141.497 33.6705 141.633 33.6619 141.74 33.6449C141.846 33.6236 141.931 33.6065 141.995 33.5938L142.302 34.9489C142.2 34.9872 142.057 35.0256 141.874 35.0639C141.691 35.1065 141.458 35.1278 141.177 35.1278C140.751 35.1278 140.333 35.0362 139.924 34.853C139.52 34.6697 139.183 34.3906 138.914 34.0156C138.65 33.6406 138.518 33.1676 138.518 32.5966V22.8295ZM144.392 35V25.1818H145.901V35H144.392ZM145.159 23.5455C144.865 23.5455 144.612 23.4453 144.399 23.245C144.19 23.0447 144.086 22.804 144.086 22.5227C144.086 22.2415 144.19 22.0007 144.399 21.8004C144.612 21.6001 144.865 21.5 145.159 21.5C145.453 21.5 145.705 21.6001 145.914 21.8004C146.127 22.0007 146.233 22.2415 146.233 22.5227C146.233 22.804 146.127 23.0447 145.914 23.245C145.705 23.4453 145.453 23.5455 145.159 23.5455ZM151.553 35.2301C150.931 35.2301 150.366 35.1129 149.859 34.8786C149.352 34.6399 148.949 34.2969 148.651 33.8494C148.353 33.3977 148.204 32.8523 148.204 32.2131C148.204 31.6506 148.314 31.1946 148.536 30.8452C148.758 30.4915 149.054 30.2145 149.425 30.0142C149.795 29.8139 150.204 29.6648 150.652 29.5668C151.104 29.4645 151.557 29.3835 152.013 29.3239C152.61 29.2472 153.094 29.1896 153.464 29.1513C153.839 29.1087 154.112 29.0384 154.282 28.9403C154.457 28.8423 154.545 28.6719 154.545 28.429V28.3778C154.545 27.7472 154.372 27.2571 154.027 26.9077C153.686 26.5582 153.168 26.3835 152.474 26.3835C151.753 26.3835 151.189 26.5412 150.78 26.8565C150.371 27.1719 150.083 27.5085 149.917 27.8665L148.485 27.3551C148.741 26.7585 149.081 26.294 149.508 25.9616C149.938 25.625 150.407 25.3906 150.914 25.2585C151.425 25.1222 151.928 25.054 152.422 25.054C152.738 25.054 153.1 25.0923 153.509 25.169C153.922 25.2415 154.321 25.3928 154.704 25.6229C155.092 25.853 155.414 26.2003 155.67 26.6648C155.925 27.1293 156.053 27.7514 156.053 28.5312V35H154.545V33.6705H154.468C154.366 33.8835 154.195 34.1115 153.956 34.3544C153.718 34.5973 153.4 34.804 153.004 34.9744C152.608 35.1449 152.124 35.2301 151.553 35.2301ZM151.783 33.875C152.38 33.875 152.883 33.7578 153.292 33.5234C153.705 33.2891 154.016 32.9865 154.225 32.6158C154.438 32.245 154.545 31.8551 154.545 31.446V30.0653C154.481 30.142 154.34 30.2124 154.123 30.2763C153.91 30.3359 153.662 30.3892 153.381 30.4361C153.104 30.4787 152.834 30.517 152.569 30.5511C152.309 30.581 152.099 30.6065 151.937 30.6278C151.545 30.679 151.178 30.7621 150.837 30.8771C150.501 30.9879 150.228 31.1562 150.019 31.3821C149.814 31.6037 149.712 31.9062 149.712 32.2898C149.712 32.8139 149.906 33.2102 150.294 33.4787C150.686 33.7429 151.182 33.875 151.783 33.875ZM163.869 38.6818V25.1818H165.326V26.7415H165.505C165.616 26.571 165.77 26.3537 165.966 26.0895C166.166 25.821 166.451 25.5824 166.822 25.3736C167.197 25.1605 167.704 25.054 168.343 25.054C169.17 25.054 169.899 25.2607 170.529 25.674C171.16 26.0874 171.652 26.6733 172.006 27.4318C172.36 28.1903 172.537 29.0852 172.537 30.1165C172.537 31.1562 172.36 32.0575 172.006 32.8203C171.652 33.5788 171.162 34.1669 170.536 34.5845C169.909 34.9979 169.187 35.2045 168.369 35.2045C167.738 35.2045 167.233 35.1001 166.854 34.8913C166.475 34.6783 166.183 34.4375 165.978 34.169C165.774 33.8963 165.616 33.6705 165.505 33.4915H165.377V38.6818H163.869ZM165.352 30.0909C165.352 30.8324 165.461 31.4865 165.678 32.0533C165.895 32.6158 166.213 33.0568 166.63 33.3764C167.048 33.6918 167.559 33.8494 168.164 33.8494C168.795 33.8494 169.321 33.6832 169.743 33.3509C170.169 33.0142 170.489 32.5625 170.702 31.9957C170.919 31.4247 171.028 30.7898 171.028 30.0909C171.028 29.4006 170.922 28.7784 170.708 28.2244C170.5 27.6662 170.182 27.2251 169.756 26.9013C169.334 26.5732 168.804 26.4091 168.164 26.4091C167.551 26.4091 167.035 26.5646 166.618 26.8757C166.2 27.1825 165.885 27.6129 165.672 28.1669C165.458 28.7166 165.352 29.358 165.352 30.0909ZM177.727 35.2301C177.105 35.2301 176.54 35.1129 176.033 34.8786C175.526 34.6399 175.123 34.2969 174.825 33.8494C174.527 33.3977 174.377 32.8523 174.377 32.2131C174.377 31.6506 174.488 31.1946 174.71 30.8452C174.931 30.4915 175.228 30.2145 175.598 30.0142C175.969 29.8139 176.378 29.6648 176.826 29.5668C177.277 29.4645 177.731 29.3835 178.187 29.3239C178.784 29.2472 179.267 29.1896 179.638 29.1513C180.013 29.1087 180.286 29.0384 180.456 28.9403C180.631 28.8423 180.718 28.6719 180.718 28.429V28.3778C180.718 27.7472 180.546 27.2571 180.201 26.9077C179.86 26.5582 179.342 26.3835 178.647 26.3835C177.927 26.3835 177.363 26.5412 176.953 26.8565C176.544 27.1719 176.257 27.5085 176.091 27.8665L174.659 27.3551C174.914 26.7585 175.255 26.294 175.681 25.9616C176.112 25.625 176.581 25.3906 177.088 25.2585C177.599 25.1222 178.102 25.054 178.596 25.054C178.912 25.054 179.274 25.0923 179.683 25.169C180.096 25.2415 180.495 25.3928 180.878 25.6229C181.266 25.853 181.588 26.2003 181.843 26.6648C182.099 27.1293 182.227 27.7514 182.227 28.5312V35H180.718V33.6705H180.642C180.539 33.8835 180.369 34.1115 180.13 34.3544C179.892 34.5973 179.574 34.804 179.178 34.9744C178.782 35.1449 178.298 35.2301 177.727 35.2301ZM177.957 33.875C178.554 33.875 179.056 33.7578 179.466 33.5234C179.879 33.2891 180.19 32.9865 180.399 32.6158C180.612 32.245 180.718 31.8551 180.718 31.446V30.0653C180.654 30.142 180.514 30.2124 180.297 30.2763C180.083 30.3359 179.836 30.3892 179.555 30.4361C179.278 30.4787 179.007 30.517 178.743 30.5511C178.483 30.581 178.272 30.6065 178.11 30.6278C177.718 30.679 177.352 30.7621 177.011 30.8771C176.674 30.9879 176.402 31.1562 176.193 31.3821C175.988 31.6037 175.886 31.9062 175.886 32.2898C175.886 32.8139 176.08 33.2102 176.468 33.4787C176.86 33.7429 177.356 33.875 177.957 33.875ZM184.98 35V25.1818H186.438V26.6648H186.54C186.719 26.179 187.043 25.7848 187.512 25.4822C187.98 25.1797 188.509 25.0284 189.097 25.0284C189.208 25.0284 189.346 25.0305 189.512 25.0348C189.678 25.0391 189.804 25.0455 189.889 25.054V26.5881C189.838 26.5753 189.721 26.5561 189.538 26.5305C189.359 26.5007 189.169 26.4858 188.969 26.4858C188.492 26.4858 188.066 26.5859 187.691 26.7862C187.32 26.9822 187.026 27.255 186.808 27.6044C186.595 27.9496 186.489 28.3437 186.489 28.7869V35H184.98ZM194.567 35.2301C193.945 35.2301 193.38 35.1129 192.873 34.8786C192.366 34.6399 191.963 34.2969 191.665 33.8494C191.366 33.3977 191.217 32.8523 191.217 32.2131C191.217 31.6506 191.328 31.1946 191.55 30.8452C191.771 30.4915 192.067 30.2145 192.438 30.0142C192.809 29.8139 193.218 29.6648 193.665 29.5668C194.117 29.4645 194.571 29.3835 195.027 29.3239C195.624 29.2472 196.107 29.1896 196.478 29.1513C196.853 29.1087 197.126 29.0384 197.296 28.9403C197.471 28.8423 197.558 28.6719 197.558 28.429V28.3778C197.558 27.7472 197.386 27.2571 197.04 26.9077C196.7 26.5582 196.182 26.3835 195.487 26.3835C194.767 26.3835 194.202 26.5412 193.793 26.8565C193.384 27.1719 193.097 27.5085 192.93 27.8665L191.499 27.3551C191.754 26.7585 192.095 26.294 192.521 25.9616C192.952 25.625 193.42 25.3906 193.928 25.2585C194.439 25.1222 194.942 25.054 195.436 25.054C195.751 25.054 196.114 25.0923 196.523 25.169C196.936 25.2415 197.335 25.3928 197.718 25.6229C198.106 25.853 198.428 26.2003 198.683 26.6648C198.939 27.1293 199.067 27.7514 199.067 28.5312V35H197.558V33.6705H197.482C197.379 33.8835 197.209 34.1115 196.97 34.3544C196.732 34.5973 196.414 34.804 196.018 34.9744C195.621 35.1449 195.138 35.2301 194.567 35.2301ZM194.797 33.875C195.393 33.875 195.896 33.7578 196.305 33.5234C196.719 33.2891 197.03 32.9865 197.239 32.6158C197.452 32.245 197.558 31.8551 197.558 31.446V30.0653C197.494 30.142 197.354 30.2124 197.136 30.2763C196.923 30.3359 196.676 30.3892 196.395 30.4361C196.118 30.4787 195.847 30.517 195.583 30.5511C195.323 30.581 195.112 30.6065 194.95 30.6278C194.558 30.679 194.192 30.7621 193.851 30.8771C193.514 30.9879 193.241 31.1562 193.033 31.3821C192.828 31.6037 192.726 31.9062 192.726 32.2898C192.726 32.8139 192.92 33.2102 193.308 33.4787C193.7 33.7429 194.196 33.875 194.797 33.875ZM210.871 35.2045C209.951 35.2045 209.158 34.9872 208.493 34.5526C207.829 34.1179 207.317 33.5192 206.959 32.7564C206.601 31.9936 206.422 31.1222 206.422 30.142C206.422 29.1449 206.606 28.2649 206.972 27.5021C207.343 26.7351 207.858 26.1364 208.519 25.706C209.184 25.2713 209.959 25.054 210.846 25.054C211.536 25.054 212.158 25.1818 212.712 25.4375C213.266 25.6932 213.72 26.0511 214.074 26.5114C214.427 26.9716 214.647 27.5085 214.732 28.1222H213.224C213.108 27.6747 212.853 27.2784 212.456 26.9332C212.064 26.5838 211.536 26.4091 210.871 26.4091C210.283 26.4091 209.768 26.5625 209.324 26.8693C208.885 27.1719 208.542 27.6001 208.295 28.1541C208.052 28.7038 207.931 29.3494 207.931 30.0909C207.931 30.8494 208.05 31.5099 208.289 32.0724C208.532 32.6349 208.873 33.0717 209.312 33.3828C209.755 33.6939 210.275 33.8494 210.871 33.8494C211.263 33.8494 211.619 33.7812 211.939 33.6449C212.258 33.5085 212.529 33.3125 212.751 33.0568C212.972 32.8011 213.13 32.4943 213.224 32.1364H214.732C214.647 32.7159 214.436 33.2379 214.099 33.7024C213.767 34.1626 213.326 34.5291 212.776 34.8018C212.231 35.0703 211.596 35.2045 210.871 35.2045ZM220.926 35.2045C220.04 35.2045 219.262 34.9936 218.593 34.5717C217.928 34.1499 217.408 33.5597 217.033 32.8011C216.662 32.0426 216.477 31.1562 216.477 30.142C216.477 29.1193 216.662 28.2266 217.033 27.4638C217.408 26.701 217.928 26.1087 218.593 25.6868C219.262 25.2649 220.04 25.054 220.926 25.054C221.812 25.054 222.588 25.2649 223.253 25.6868C223.922 26.1087 224.442 26.701 224.812 27.4638C225.187 28.2266 225.375 29.1193 225.375 30.142C225.375 31.1562 225.187 32.0426 224.812 32.8011C224.442 33.5597 223.922 34.1499 223.253 34.5717C222.588 34.9936 221.812 35.2045 220.926 35.2045ZM220.926 33.8494C221.599 33.8494 222.153 33.6768 222.588 33.3317C223.023 32.9865 223.344 32.5327 223.553 31.9702C223.762 31.4077 223.866 30.7983 223.866 30.142C223.866 29.4858 223.762 28.8743 223.553 28.3075C223.344 27.7408 223.023 27.2827 222.588 26.9332C222.153 26.5838 221.599 26.4091 220.926 26.4091C220.253 26.4091 219.699 26.5838 219.264 26.9332C218.829 27.2827 218.508 27.7408 218.299 28.3075C218.09 28.8743 217.986 29.4858 217.986 30.142C217.986 30.7983 218.09 31.4077 218.299 31.9702C218.508 32.5327 218.829 32.9865 219.264 33.3317C219.699 33.6768 220.253 33.8494 220.926 33.8494ZM229.186 29.0938V35H227.678V25.1818H229.135V26.7159H229.263C229.493 26.2173 229.842 25.8168 230.311 25.5142C230.78 25.2074 231.385 25.054 232.126 25.054C232.791 25.054 233.373 25.1903 233.871 25.4631C234.37 25.7315 234.758 26.1406 235.035 26.6903C235.312 27.2358 235.45 27.9261 235.45 28.7614V35H233.942V28.8636C233.942 28.0923 233.741 27.4915 233.341 27.0611C232.94 26.6264 232.391 26.4091 231.692 26.4091C231.21 26.4091 230.78 26.5135 230.401 26.7223C230.026 26.9311 229.729 27.2358 229.512 27.6364C229.295 28.0369 229.186 28.5227 229.186 29.0938ZM245.161 27.3807L243.806 27.7642C243.721 27.5384 243.595 27.3189 243.429 27.1058C243.267 26.8885 243.046 26.7095 242.764 26.5689C242.483 26.4283 242.123 26.358 241.684 26.358C241.083 26.358 240.583 26.4964 240.182 26.7734C239.786 27.0462 239.588 27.3935 239.588 27.8153C239.588 28.1903 239.724 28.4865 239.997 28.7038C240.269 28.9212 240.695 29.1023 241.275 29.2472L242.732 29.6051C243.61 29.8182 244.264 30.1442 244.695 30.5831C245.125 31.0178 245.34 31.5781 245.34 32.2642C245.34 32.8267 245.178 33.3295 244.855 33.7727C244.535 34.2159 244.088 34.5653 243.512 34.821C242.937 35.0767 242.268 35.2045 241.505 35.2045C240.504 35.2045 239.675 34.9872 239.019 34.5526C238.362 34.1179 237.947 33.483 237.772 32.6477L239.204 32.2898C239.34 32.8182 239.598 33.2145 239.977 33.4787C240.361 33.7429 240.862 33.875 241.48 33.875C242.183 33.875 242.741 33.7259 243.154 33.4276C243.572 33.125 243.781 32.7628 243.781 32.3409C243.781 32 243.661 31.7145 243.423 31.4844C243.184 31.25 242.818 31.0753 242.323 30.9602L240.687 30.5767C239.788 30.3636 239.127 30.0334 238.705 29.5859C238.288 29.1342 238.079 28.5696 238.079 27.892C238.079 27.3381 238.235 26.848 238.546 26.4219C238.861 25.9957 239.289 25.6612 239.83 25.4183C240.376 25.1754 240.994 25.054 241.684 25.054C242.656 25.054 243.419 25.267 243.972 25.6932C244.531 26.1193 244.927 26.6818 245.161 27.3807ZM251.881 25.1818V26.4602H246.793V25.1818H251.881ZM248.276 22.8295H249.784V32.1875C249.784 32.6136 249.846 32.9332 249.97 33.1463C250.098 33.3551 250.26 33.4957 250.456 33.5682C250.656 33.6364 250.867 33.6705 251.088 33.6705C251.255 33.6705 251.391 33.6619 251.498 33.6449C251.604 33.6236 251.689 33.6065 251.753 33.5938L252.06 34.9489C251.958 34.9872 251.815 35.0256 251.632 35.0639C251.449 35.1065 251.216 35.1278 250.935 35.1278C250.509 35.1278 250.091 35.0362 249.682 34.853C249.277 34.6697 248.941 34.3906 248.672 34.0156C248.408 33.6406 248.276 33.1676 248.276 32.5966V22.8295ZM254.15 35V25.1818H255.608V26.6648H255.71C255.889 26.179 256.213 25.7848 256.681 25.4822C257.15 25.1797 257.679 25.0284 258.267 25.0284C258.377 25.0284 258.516 25.0305 258.682 25.0348C258.848 25.0391 258.974 25.0455 259.059 25.054V26.5881C259.008 26.5753 258.891 26.5561 258.708 26.5305C258.529 26.5007 258.339 26.4858 258.139 26.4858C257.662 26.4858 257.235 26.5859 256.86 26.7862C256.49 26.9822 256.196 27.255 255.978 27.6044C255.765 27.9496 255.659 28.3437 255.659 28.7869V35H254.15ZM267.035 30.9858V25.1818H268.544V35H267.035V33.3381H266.933C266.703 33.8366 266.345 34.2607 265.859 34.6101C265.373 34.9553 264.759 35.1278 264.018 35.1278C263.404 35.1278 262.859 34.9936 262.382 34.7251C261.904 34.4524 261.529 34.0433 261.257 33.4979C260.984 32.9482 260.847 32.2557 260.847 31.4205V25.1818H262.356V31.3182C262.356 32.0341 262.556 32.6051 262.957 33.0312C263.362 33.4574 263.877 33.6705 264.504 33.6705C264.879 33.6705 265.26 33.5746 265.648 33.3828C266.04 33.1911 266.368 32.897 266.632 32.5007C266.901 32.1044 267.035 31.5994 267.035 30.9858ZM275.295 35.2045C274.375 35.2045 273.582 34.9872 272.917 34.5526C272.252 34.1179 271.741 33.5192 271.383 32.7564C271.025 31.9936 270.846 31.1222 270.846 30.142C270.846 29.1449 271.029 28.2649 271.396 27.5021C271.767 26.7351 272.282 26.1364 272.943 25.706C273.608 25.2713 274.383 25.054 275.27 25.054C275.96 25.054 276.582 25.1818 277.136 25.4375C277.69 25.6932 278.144 26.0511 278.498 26.5114C278.851 26.9716 279.071 27.5085 279.156 28.1222H277.647C277.532 27.6747 277.277 27.2784 276.88 26.9332C276.488 26.5838 275.96 26.4091 275.295 26.4091C274.707 26.4091 274.191 26.5625 273.748 26.8693C273.309 27.1719 272.966 27.6001 272.719 28.1541C272.476 28.7038 272.355 29.3494 272.355 30.0909C272.355 30.8494 272.474 31.5099 272.713 32.0724C272.956 32.6349 273.297 33.0717 273.735 33.3828C274.179 33.6939 274.699 33.8494 275.295 33.8494C275.687 33.8494 276.043 33.7812 276.363 33.6449C276.682 33.5085 276.953 33.3125 277.174 33.0568C277.396 32.8011 277.554 32.4943 277.647 32.1364H279.156C279.071 32.7159 278.86 33.2379 278.523 33.7024C278.191 34.1626 277.75 34.5291 277.2 34.8018C276.654 35.0703 276.02 35.2045 275.295 35.2045ZM274.579 34.9489H275.832L275.73 35.4602C276.062 35.5114 276.367 35.6499 276.644 35.8757C276.921 36.1058 277.059 36.4702 277.059 36.9688C277.059 37.5185 276.831 37.9659 276.375 38.3111C275.924 38.6605 275.257 38.8352 274.375 38.8352L274.324 37.8381C274.72 37.8381 275.048 37.7741 275.308 37.6463C275.572 37.5227 275.704 37.3139 275.704 37.0199C275.704 36.7259 275.596 36.5256 275.378 36.419C275.161 36.3125 274.809 36.2401 274.324 36.2017L274.579 34.9489ZM284.25 35.2301C283.628 35.2301 283.064 35.1129 282.556 34.8786C282.049 34.6399 281.647 34.2969 281.348 33.8494C281.05 33.3977 280.901 32.8523 280.901 32.2131C280.901 31.6506 281.012 31.1946 281.233 30.8452C281.455 30.4915 281.751 30.2145 282.122 30.0142C282.493 29.8139 282.902 29.6648 283.349 29.5668C283.801 29.4645 284.255 29.3835 284.711 29.3239C285.307 29.2472 285.791 29.1896 286.162 29.1513C286.537 29.1087 286.809 29.0384 286.98 28.9403C287.154 28.8423 287.242 28.6719 287.242 28.429V28.3778C287.242 27.7472 287.069 27.2571 286.724 26.9077C286.383 26.5582 285.865 26.3835 285.171 26.3835C284.451 26.3835 283.886 26.5412 283.477 26.8565C283.068 27.1719 282.78 27.5085 282.614 27.8665L281.182 27.3551C281.438 26.7585 281.779 26.294 282.205 25.9616C282.635 25.625 283.104 25.3906 283.611 25.2585C284.123 25.1222 284.625 25.054 285.12 25.054C285.435 25.054 285.797 25.0923 286.206 25.169C286.62 25.2415 287.018 25.3928 287.402 25.6229C287.789 25.853 288.111 26.2003 288.367 26.6648C288.623 27.1293 288.75 27.7514 288.75 28.5312V35H287.242V33.6705H287.165C287.063 33.8835 286.892 34.1115 286.654 34.3544C286.415 34.5973 286.098 34.804 285.701 34.9744C285.305 35.1449 284.821 35.2301 284.25 35.2301ZM284.48 33.875C285.077 33.875 285.58 33.7578 285.989 33.5234C286.402 33.2891 286.713 32.9865 286.922 32.6158C287.135 32.245 287.242 31.8551 287.242 31.446V30.0653C287.178 30.142 287.037 30.2124 286.82 30.2763C286.607 30.3359 286.36 30.3892 286.078 30.4361C285.801 30.4787 285.531 30.517 285.267 30.5511C285.007 30.581 284.796 30.6065 284.634 30.6278C284.242 30.679 283.875 30.7621 283.534 30.8771C283.198 30.9879 282.925 31.1562 282.716 31.3821C282.512 31.6037 282.409 31.9062 282.409 32.2898C282.409 32.8139 282.603 33.2102 282.991 33.4787C283.383 33.7429 283.88 33.875 284.48 33.875ZM283.253 24.0057L282.077 23.9545C282.077 23.3026 282.262 22.7699 282.633 22.3565C283.008 21.9389 283.471 21.7301 284.02 21.7301C284.263 21.7301 284.478 21.7727 284.666 21.858C284.853 21.9389 285.032 22.0327 285.203 22.1392C285.373 22.2457 285.548 22.3416 285.727 22.4268C285.91 22.5078 286.117 22.5483 286.347 22.5483C286.59 22.5483 286.794 22.4545 286.961 22.267C287.131 22.0753 287.216 21.8452 287.216 21.5767L288.367 21.679C288.367 22.3437 288.179 22.8722 287.804 23.2642C287.434 23.6562 286.973 23.8523 286.424 23.8523C286.13 23.8523 285.887 23.8118 285.695 23.7308C285.503 23.6456 285.333 23.5497 285.184 23.4432C285.034 23.3366 284.877 23.2429 284.711 23.1619C284.544 23.0767 284.34 23.0341 284.097 23.0341C283.854 23.0341 283.652 23.13 283.49 23.3217C283.332 23.5092 283.253 23.7372 283.253 24.0057ZM295.492 35.2045C294.606 35.2045 293.828 34.9936 293.159 34.5717C292.494 34.1499 291.975 33.5597 291.6 32.8011C291.229 32.0426 291.044 31.1562 291.044 30.142C291.044 29.1193 291.229 28.2266 291.6 27.4638C291.975 26.701 292.494 26.1087 293.159 25.6868C293.828 25.2649 294.606 25.054 295.492 25.054C296.379 25.054 297.154 25.2649 297.819 25.6868C298.488 26.1087 299.008 26.701 299.379 27.4638C299.754 28.2266 299.941 29.1193 299.941 30.142C299.941 31.1562 299.754 32.0426 299.379 32.8011C299.008 33.5597 298.488 34.1499 297.819 34.5717C297.154 34.9936 296.379 35.2045 295.492 35.2045ZM295.492 33.8494C296.166 33.8494 296.72 33.6768 297.154 33.3317C297.589 32.9865 297.911 32.5327 298.119 31.9702C298.328 31.4077 298.433 30.7983 298.433 30.142C298.433 29.4858 298.328 28.8743 298.119 28.3075C297.911 27.7408 297.589 27.2827 297.154 26.9332C296.72 26.5838 296.166 26.4091 295.492 26.4091C294.819 26.4091 294.265 26.5838 293.83 26.9332C293.396 27.2827 293.074 27.7408 292.865 28.3075C292.656 28.8743 292.552 29.4858 292.552 30.142C292.552 30.7983 292.656 31.4077 292.865 31.9702C293.074 32.5327 293.396 32.9865 293.83 33.3317C294.265 33.6768 294.819 33.8494 295.492 33.8494ZM307.306 35V25.1818H308.815V35H307.306ZM308.074 23.5455C307.779 23.5455 307.526 23.4453 307.313 23.245C307.104 23.0447 307 22.804 307 22.5227C307 22.2415 307.104 22.0007 307.313 21.8004C307.526 21.6001 307.779 21.5 308.074 21.5C308.368 21.5 308.619 21.6001 308.828 21.8004C309.041 22.0007 309.147 22.2415 309.147 22.5227C309.147 22.804 309.041 23.0447 308.828 23.245C308.619 23.4453 308.368 23.5455 308.074 23.5455ZM311.578 35V25.1818H313.035V26.7159H313.163C313.368 26.1918 313.698 25.7848 314.154 25.495C314.61 25.201 315.157 25.054 315.797 25.054C316.444 25.054 316.983 25.201 317.414 25.495C317.849 25.7848 318.187 26.1918 318.43 26.7159H318.532C318.784 26.2088 319.161 25.8061 319.664 25.5078C320.167 25.2053 320.77 25.054 321.473 25.054C322.351 25.054 323.069 25.3288 323.627 25.8786C324.185 26.424 324.464 27.2741 324.464 28.429V35H322.956V28.429C322.956 27.7045 322.758 27.1868 322.361 26.8757C321.965 26.5646 321.498 26.4091 320.961 26.4091C320.271 26.4091 319.736 26.6179 319.357 27.0355C318.978 27.4489 318.788 27.973 318.788 28.608V35H317.254V28.2756C317.254 27.7173 317.073 27.2678 316.711 26.9268C316.349 26.5817 315.882 26.4091 315.311 26.4091C314.919 26.4091 314.552 26.5135 314.211 26.7223C313.875 26.9311 313.602 27.2209 313.393 27.5916C313.189 27.9581 313.086 28.3821 313.086 28.8636V35H311.578ZM331.211 35.2045C330.325 35.2045 329.547 34.9936 328.878 34.5717C328.213 34.1499 327.693 33.5597 327.318 32.8011C326.948 32.0426 326.762 31.1562 326.762 30.142C326.762 29.1193 326.948 28.2266 327.318 27.4638C327.693 26.701 328.213 26.1087 328.878 25.6868C329.547 25.2649 330.325 25.054 331.211 25.054C332.097 25.054 332.873 25.2649 333.538 25.6868C334.207 26.1087 334.727 26.701 335.097 27.4638C335.472 28.2266 335.66 29.1193 335.66 30.142C335.66 31.1562 335.472 32.0426 335.097 32.8011C334.727 33.5597 334.207 34.1499 333.538 34.5717C332.873 34.9936 332.097 35.2045 331.211 35.2045ZM331.211 33.8494C331.884 33.8494 332.438 33.6768 332.873 33.3317C333.308 32.9865 333.629 32.5327 333.838 31.9702C334.047 31.4077 334.151 30.7983 334.151 30.142C334.151 29.4858 334.047 28.8743 333.838 28.3075C333.629 27.7408 333.308 27.2827 332.873 26.9332C332.438 26.5838 331.884 26.4091 331.211 26.4091C330.538 26.4091 329.984 26.5838 329.549 26.9332C329.115 27.2827 328.793 27.7408 328.584 28.3075C328.375 28.8743 328.271 29.4858 328.271 30.142C328.271 30.7983 328.375 31.4077 328.584 31.9702C328.793 32.5327 329.115 32.9865 329.549 33.3317C329.984 33.6768 330.538 33.8494 331.211 33.8494ZM338.167 35V21.9091H339.676V26.7415H339.804C339.914 26.571 340.068 26.3537 340.264 26.0895C340.464 25.821 340.75 25.5824 341.12 25.3736C341.495 25.1605 342.002 25.054 342.642 25.054C343.468 25.054 344.197 25.2607 344.828 25.674C345.458 26.0874 345.951 26.6733 346.304 27.4318C346.658 28.1903 346.835 29.0852 346.835 30.1165C346.835 31.1562 346.658 32.0575 346.304 32.8203C345.951 33.5788 345.461 34.1669 344.834 34.5845C344.208 34.9979 343.485 35.2045 342.667 35.2045C342.037 35.2045 341.532 35.1001 341.152 34.8913C340.773 34.6783 340.481 34.4375 340.277 34.169C340.072 33.8963 339.914 33.6705 339.804 33.4915H339.625V35H338.167ZM339.65 30.0909C339.65 30.8324 339.759 31.4865 339.976 32.0533C340.194 32.6158 340.511 33.0568 340.929 33.3764C341.346 33.6918 341.858 33.8494 342.463 33.8494C343.093 33.8494 343.62 33.6832 344.042 33.3509C344.468 33.0142 344.787 32.5625 345 31.9957C345.218 31.4247 345.326 30.7898 345.326 30.0909C345.326 29.4006 345.22 28.7784 345.007 28.2244C344.798 27.6662 344.48 27.2251 344.054 26.9013C343.632 26.5732 343.102 26.4091 342.463 26.4091C341.849 26.4091 341.333 26.5646 340.916 26.8757C340.498 27.1825 340.183 27.6129 339.97 28.1669C339.757 28.7166 339.65 29.358 339.65 30.0909ZM349.142 35V25.1818H350.651V35H349.142ZM349.909 23.5455C349.615 23.5455 349.362 23.4453 349.149 23.245C348.94 23.0447 348.836 22.804 348.836 22.5227C348.836 22.2415 348.94 22.0007 349.149 21.8004C349.362 21.6001 349.615 21.5 349.909 21.5C350.203 21.5 350.455 21.6001 350.664 21.8004C350.877 22.0007 350.983 22.2415 350.983 22.5227C350.983 22.804 350.877 23.0447 350.664 23.245C350.455 23.4453 350.203 23.5455 349.909 23.5455ZM354.922 21.9091V35H353.414V21.9091H354.922ZM357.685 35V25.1818H359.194V35H357.685ZM358.452 23.5455C358.158 23.5455 357.905 23.4453 357.692 23.245C357.483 23.0447 357.379 22.804 357.379 22.5227C357.379 22.2415 357.483 22.0007 357.692 21.8004C357.905 21.6001 358.158 21.5 358.452 21.5C358.746 21.5 358.998 21.6001 359.207 21.8004C359.42 22.0007 359.526 22.2415 359.526 22.5227C359.526 22.804 359.42 23.0447 359.207 23.245C358.998 23.4453 358.746 23.5455 358.452 23.5455ZM364.846 35.2301C364.224 35.2301 363.659 35.1129 363.152 34.8786C362.645 34.6399 362.242 34.2969 361.944 33.8494C361.646 33.3977 361.497 32.8523 361.497 32.2131C361.497 31.6506 361.607 31.1946 361.829 30.8452C362.051 30.4915 362.347 30.2145 362.718 30.0142C363.088 29.8139 363.497 29.6648 363.945 29.5668C364.396 29.4645 364.85 29.3835 365.306 29.3239C365.903 29.2472 366.387 29.1896 366.757 29.1513C367.132 29.1087 367.405 29.0384 367.575 28.9403C367.75 28.8423 367.838 28.6719 367.838 28.429V28.3778C367.838 27.7472 367.665 27.2571 367.32 26.9077C366.979 26.5582 366.461 26.3835 365.767 26.3835C365.046 26.3835 364.482 26.5412 364.073 26.8565C363.664 27.1719 363.376 27.5085 363.21 27.8665L361.778 27.3551C362.034 26.7585 362.374 26.294 362.801 25.9616C363.231 25.625 363.7 25.3906 364.207 25.2585C364.718 25.1222 365.221 25.054 365.715 25.054C366.031 25.054 366.393 25.0923 366.802 25.169C367.215 25.2415 367.614 25.3928 367.997 25.6229C368.385 25.853 368.707 26.2003 368.963 26.6648C369.218 27.1293 369.346 27.7514 369.346 28.5312V35H367.838V33.6705H367.761C367.659 33.8835 367.488 34.1115 367.249 34.3544C367.011 34.5973 366.693 34.804 366.297 34.9744C365.901 35.1449 365.417 35.2301 364.846 35.2301ZM365.076 33.875C365.673 33.875 366.176 33.7578 366.585 33.5234C366.998 33.2891 367.309 32.9865 367.518 32.6158C367.731 32.245 367.838 31.8551 367.838 31.446V30.0653C367.774 30.142 367.633 30.2124 367.416 30.2763C367.203 30.3359 366.955 30.3892 366.674 30.4361C366.397 30.4787 366.127 30.517 365.862 30.5511C365.602 30.581 365.392 30.6065 365.23 30.6278C364.838 30.679 364.471 30.7621 364.13 30.8771C363.794 30.9879 363.521 31.1562 363.312 31.3821C363.107 31.6037 363.005 31.9062 363.005 32.2898C363.005 32.8139 363.199 33.2102 363.587 33.4787C363.979 33.7429 364.475 33.875 365.076 33.875ZM365.127 23.8523L366.687 20.8864H368.451L366.457 23.8523H365.127ZM372.099 35V25.1818H373.557V26.6648H373.659C373.838 26.179 374.162 25.7848 374.631 25.4822C375.099 25.1797 375.628 25.0284 376.216 25.0284C376.327 25.0284 376.465 25.0305 376.631 25.0348C376.798 25.0391 376.923 25.0455 377.009 25.054V26.5881C376.957 26.5753 376.84 26.5561 376.657 26.5305C376.478 26.5007 376.288 26.4858 376.088 26.4858C375.611 26.4858 375.185 26.5859 374.81 26.7862C374.439 26.9822 374.145 27.255 373.928 27.6044C373.714 27.9496 373.608 28.3437 373.608 28.7869V35H372.099ZM378.797 35V25.1818H380.305V35H378.797ZM379.564 23.5455C379.27 23.5455 379.016 23.4453 378.803 23.245C378.594 23.0447 378.49 22.804 378.49 22.5227C378.49 22.2415 378.594 22.0007 378.803 21.8004C379.016 21.6001 379.27 21.5 379.564 21.5C379.858 21.5 380.109 21.6001 380.318 21.8004C380.531 22.0007 380.638 22.2415 380.638 22.5227C380.638 22.804 380.531 23.0447 380.318 23.245C380.109 23.4453 379.858 23.5455 379.564 23.5455ZM385.957 35.2301C385.335 35.2301 384.771 35.1129 384.263 34.8786C383.756 34.6399 383.354 34.2969 383.055 33.8494C382.757 33.3977 382.608 32.8523 382.608 32.2131C382.608 31.6506 382.719 31.1946 382.94 30.8452C383.162 30.4915 383.458 30.2145 383.829 30.0142C384.2 29.8139 384.609 29.6648 385.056 29.5668C385.508 29.4645 385.962 29.3835 386.418 29.3239C387.014 29.2472 387.498 29.1896 387.869 29.1513C388.244 29.1087 388.516 29.0384 388.687 28.9403C388.862 28.8423 388.949 28.6719 388.949 28.429V28.3778C388.949 27.7472 388.776 27.2571 388.431 26.9077C388.09 26.5582 387.572 26.3835 386.878 26.3835C386.158 26.3835 385.593 26.5412 385.184 26.8565C384.775 27.1719 384.487 27.5085 384.321 27.8665L382.889 27.3551C383.145 26.7585 383.486 26.294 383.912 25.9616C384.342 25.625 384.811 25.3906 385.318 25.2585C385.83 25.1222 386.332 25.054 386.827 25.054C387.142 25.054 387.504 25.0923 387.913 25.169C388.327 25.2415 388.725 25.3928 389.109 25.6229C389.496 25.853 389.818 26.2003 390.074 26.6648C390.33 27.1293 390.457 27.7514 390.457 28.5312V35H388.949V33.6705H388.872C388.77 33.8835 388.599 34.1115 388.361 34.3544C388.122 34.5973 387.805 34.804 387.408 34.9744C387.012 35.1449 386.528 35.2301 385.957 35.2301ZM386.188 33.875C386.784 33.875 387.287 33.7578 387.696 33.5234C388.109 33.2891 388.42 32.9865 388.629 32.6158C388.842 32.245 388.949 31.8551 388.949 31.446V30.0653C388.885 30.142 388.744 30.2124 388.527 30.2763C388.314 30.3359 388.067 30.3892 387.786 30.4361C387.509 30.4787 387.238 30.517 386.974 30.5511C386.714 30.581 386.503 30.6065 386.341 30.6278C385.949 30.679 385.582 30.7621 385.241 30.8771C384.905 30.9879 384.632 31.1562 384.423 31.3821C384.219 31.6037 384.116 31.9062 384.116 32.2898C384.116 32.8139 384.31 33.2102 384.698 33.4787C385.09 33.7429 385.587 33.875 386.188 33.875Z" fill="#999999"/>
</svg>
