<svg width="16" height="16" viewBox="0 0 16 16" fill="none" xmlns="http://www.w3.org/2000/svg">
<path d="M9.15822 6.84234C8.54389 6.22826 7.71084 5.8833 6.84222 5.8833C5.97361 5.8833 5.14055 6.22826 4.52622 6.84234L2.20947 9.15834C1.59513 9.77268 1.25 10.6059 1.25 11.4747C1.25 12.3435 1.59513 13.1767 2.20947 13.7911C2.82381 14.4054 3.65704 14.7506 4.52585 14.7506C5.39466 14.7506 6.22788 14.4054 6.84222 13.7911L8.00022 12.6331" stroke="#4D616E" stroke-width="2" stroke-linecap="round" stroke-linejoin="round"/>
<path d="M6.84229 9.15822C7.45662 9.7723 8.28967 10.1173 9.15828 10.1173C10.0269 10.1173 10.86 9.7723 11.4743 9.15822L13.791 6.84222C14.4054 6.22788 14.7505 5.39466 14.7505 4.52585C14.7505 3.65704 14.4054 2.82381 13.791 2.20947C13.1767 1.59513 12.3435 1.25 11.4747 1.25C10.6059 1.25 9.77263 1.59513 9.15828 2.20947L8.00028 3.36747" stroke="#4D616E" stroke-width="2" stroke-linecap="round" stroke-linejoin="round"/>
</svg>
