<svg width="32" height="32" viewBox="0 0 32 32" fill="none" xmlns="http://www.w3.org/2000/svg">
<path d="M15.9996 0.502792C13.9882 0.429417 12.4306 1.81917 10.7439 2.69242C8.44982 4.05229 6.08751 5.30679 3.83914 6.73717C2.36851 7.93248 1.69282 9.85592 1.84726 11.7134C1.85582 15.0066 1.8302 18.3006 1.8602 21.5934C2.05064 23.5871 3.43314 25.2792 5.21214 26.1132C8.06801 27.7523 10.9071 29.4219 13.7734 31.0418C15.5956 31.8727 17.7526 31.5232 19.3645 30.3991C22.212 28.7451 25.0771 27.1204 27.9134 25.4479C29.545 24.2863 30.3195 22.2431 30.1521 20.2854C30.1435 16.9921 30.1692 13.6982 30.1391 10.4054C29.9485 8.41179 28.5663 6.71935 26.7871 5.88567C23.9311 4.24692 21.0915 2.57848 18.2253 0.958354C17.5316 0.636104 16.7609 0.504917 15.9997 0.502729L15.9996 0.502792ZM14.2062 8.79592H17.7937V23.2034H14.2062V8.79592ZM18.7206 11.9318H22.3064V23.2034H18.7206V11.9318ZM9.69239 17.8118H13.2793V23.2034H9.69239V17.8117V17.8118Z" fill="#5350ED"/>
</svg>
