<svg width="32" height="32" viewBox="0 0 32 32" fill="none" xmlns="http://www.w3.org/2000/svg">
<path d="M30.5548 3.27805H18.8941V0.370117H16.7204L0 3.2853V28.7222L16.6223 31.6301H18.8941V28.7331H29.806C30.4239 28.704 31.1109 28.7512 31.6416 28.3732C32.0669 27.7226 31.9579 26.9084 31.9942 26.1741V4.68837C32.0705 3.85962 31.3836 3.19443 30.5548 3.27805ZM12.1259 20.9399C11.5189 21.2562 10.6102 20.9254 9.8905 20.9762C9.40706 18.57 8.84363 16.1782 8.41113 13.7611C7.98581 16.1092 7.43331 18.4354 6.94625 20.7691C6.24837 20.7327 5.54688 20.6891 4.84531 20.6419C4.24188 17.4431 3.53312 14.2662 2.96969 11.0603C3.59125 11.0312 4.21644 11.0058 4.838 10.984C5.21237 13.2994 5.63769 15.6039 5.96488 17.923C6.47738 15.5457 7.00075 13.1686 7.50969 10.7914C8.20031 10.7514 8.89094 10.7223 9.58156 10.6859C10.065 13.1395 10.5593 15.5894 11.0828 18.032C11.4935 15.5094 11.9478 12.9941 12.3877 10.4751C13.1146 10.4497 13.8416 10.4097 14.5649 10.3661C13.7435 13.8882 13.0238 17.4396 12.1259 20.9399ZM30.2642 27.0067H18.8941V24.7238H28.3447V23.2699H18.8941V21.4524H28.3447V19.9985H18.8941V18.181H28.3447V16.7271H18.8941V14.9096H28.3447V13.4557H18.8941V11.6382H28.3447V10.1843H18.8941V8.36687H28.3447V6.91293H18.8941V4.99355H30.2642V27.0067V27.0067Z" fill="#496CEA"/>
</svg>
